# Aaro4130 OBJ Exporter v2.0
mtllib Graduate_School_of_Culture_and_Technology_Tool.mtl
g VMtl1495
v -32.59583 -6.78813 -15.27917
v -27.68883 -2.50013 -15.27917
v -32.59583 -2.50013 -15.27917
v -27.68883 -6.78813 -15.27917
v -32.59583 -2.50013 -1.618164
v -32.59583 -6.78813 -15.27917
v -32.59583 -2.50013 -15.27917
v -32.59583 -6.78813 -1.618164
vn 0 0 -0.5773503
vn 0 0 -0.5773503
vn 0 0 -0.5773503
vn 0 0 -0.5773503
vn -0.5773503 0 0
vn -0.5773503 0 0
vn -0.5773503 0 0
vn -0.5773503 0 0
vt 1 0.0002
vt 0 0.8752
vt 1 0.8752
vt 0 0.0002
vt 3.3108 1.0391
vt 0 0.0002
vt 0 1.0391
vt 3.3108 0.0002
usemtl VMtl1495
f 3/3/3 2/2/2 1/1/1
f 4/4/4 1/1/1 2/2/2
f 7/7/7 6/6/6 5/5/5
f 8/8/8 5/5/5 6/6/6
g VMtl1496
v -27.68883 -2.50013 -15.27917
v -27.68883 -2.50013 -10.92719
v -32.59583 -2.50013 -15.27917
v -22.17783 -2.50013 -1.618164
v -32.59583 -2.50013 -1.618164
v -22.17783 -2.50013 -10.92719
v -32.59583 -6.78813 -1.618164
v -22.17783 -2.50013 -1.618164
v -22.17783 -6.78813 -1.618164
v -32.59583 -2.50013 -1.618164
vn 0 0.5773503 0
vn 0 0.5773503 0
vn 0 0.5773503 0
vn 0 0.5773503 0
vn 0 0.5773503 0
vn 0 0.5773503 0
vn 0 0 0.5773503
vn 0 0 0.5773503
vn 0 0 0.5773503
vn 0 0 0.5773503
vt 0 1.1501
vt 1.0208 1.1501
vt 0 0
vt 3.2063 2.4443
vt 3.2063 0
vt 1.0208 2.4443
vt 0 0
vt 2.1555 0.8877
vt 2.1555 0
vt 0 0.8877
usemtl VMtl1496
f 11/11/11 10/10/10 9/9/9
f 10/10/10 11/11/11 12/12/12
f 11/11/11 13/13/13 12/12/12
f 10/10/10 12/12/12 14/14/14
f 17/17/17 16/16/16 15/15/15
f 18/18/18 15/15/15 16/16/16
g VMtl1498
v 26.08917 11.06087 -1.618164
v -22.17783 -6.78813 -1.618164
v -22.17783 11.06187 -1.618164
v 26.08817 -6.78813 -1.618164
vn 0 0 0.5773503
vn 0 0 0.5773503
vn 0 0 0.5773503
vn 0 0 0.5773503
vt 5.0432 3.8926
vt 0 0.0002
vt 0 3.8926
vt 5.0432 0.0002
usemtl VMtl1498
f 21/21/21 20/20/20 19/19/19
f 22/22/22 19/19/19 20/20/20
g VMtl1499
v -27.68883 11.06187 -10.92719
v -27.68883 -6.78813 -24.40817
v -27.68883 11.06187 -24.40817
v -27.68883 -6.78813 -10.92719
v 31.59917 11.06087 -24.40717
v 31.59917 -6.78813 -11.16818
v 31.59917 11.06087 -11.16818
v 31.59917 -6.78813 -24.40717
vn -0.5773503 0 0
vn -0.5773503 0 0
vn -0.5773503 0 0
vn -0.5773503 0 0
vn 0.5773503 0 0
vn 0.5773503 0 0
vn 0.5773503 0 0
vn 0.5773503 0 0
vt 1 5.2981
vt 0 0.0002
vt 0 5.2981
vt 1 0.0002
vt 1 5.3911
vt 0 0
vt 0 5.3911
vt 1 0
usemtl VMtl1499
f 25/25/25 24/24/24 23/23/23
f 26/26/26 23/23/23 24/24/24
f 29/29/29 28/28/28 27/27/27
f 30/30/30 27/27/27 28/28/28
g VMtl1500
v -27.68883 11.06187 -24.40817
v 31.59917 -6.78813 -24.40717
v 31.59917 11.06087 -24.40717
v -27.68883 -6.78813 -24.40817
v -22.17783 11.06187 -10.92719
v -27.68883 -6.78813 -10.92719
v -27.68883 11.06187 -10.92719
v -22.17783 -6.78813 -10.92719
v -22.17783 11.06187 -1.618164
v -22.17783 -6.78813 -10.92719
v -22.17783 11.06187 -10.92719
v -22.17783 -6.78813 -1.618164
v 26.08917 11.06087 -10.92719
v 26.08817 -6.78813 -1.618164
v 26.08917 11.06087 -1.618164
v 26.08817 -6.78813 -10.92719
v 31.59917 11.06087 -11.16818
v 26.08817 -6.78813 -10.92719
v 26.08917 11.06087 -10.92719
v 31.59917 -6.78813 -11.16818
vn 0 0 -0.5773503
vn 0 0 -0.5773503
vn 0 0 -0.5773503
vn 0 0 -0.5773503
vn 0 0 0.5773503
vn 0 0 0.5773503
vn 0 0 0.5773503
vn 0 0 0.5773503
vn -0.5773503 0 0
vn -0.5773503 0 0
vn -0.5773503 0 0
vn -0.5773503 0 0
vn 0.5773503 0 0
vn 0.5773503 0 0
vn 0.5773503 0 0
vn 0.5773503 0 0
vn 0.02540421 0 0.576791
vn 0.02540421 0 0.576791
vn 0.02540421 0 0.576791
vn 0.02540421 0 0.576791
vt 9.8877 2.9763
vt 0 0
vt 0 2.9763
vt 9.8877 0
vt 1.4216 4.6033
vt 0 0
vt 0 4.6033
vt 1.4216 0
vt 2.2927 4.3958
vt 0 0.0002
vt 0 4.3958
vt 2.2927 0.0002
vt 2.1411 4.105
vt 0 0.0002
vt 0 4.105
vt 2.1411 0.0002
vt 1 3.2349
vt 0 0.0002
vt 0 3.2349
vt 1 0.0002
usemtl VMtl1500
f 33/33/33 32/32/32 31/31/31
f 34/34/34 31/31/31 32/32/32
f 37/37/37 36/36/36 35/35/35
f 38/38/38 35/35/35 36/36/36
f 41/41/41 40/40/40 39/39/39
f 42/42/42 39/39/39 40/40/40
f 45/45/45 44/44/44 43/43/43
f 46/46/46 43/43/43 44/44/44
f 49/49/49 48/48/48 47/47/47
f 50/50/50 47/47/47 48/48/48
g VMtl1502
v 7.797173 2.338869 -1.618164
v -3.886826 2.338869 8.13681
v 7.797173 2.338869 8.13681
v -3.886826 2.338869 -1.618164
v 7.797173 3.563869 8.13681
v -3.886826 3.563869 -1.618164
v 7.797173 3.563869 -1.618164
v -3.886826 3.563869 8.13681
v -19.34483 -3.72513 3.288818
v -16.11383 -2.674129 1.697815
v -19.34483 -3.20513 3.288818
v -16.11383 -3.72513 1.697815
v -5.21283 -0.9441299 5.38681
v -8.42083 -3.72513 5.56781
v -8.42083 -1.54213 5.56781
v -5.21283 -3.72513 5.38681
v -11.20583 -3.72513 6.122833
v -8.42083 -1.54213 5.56781
v -8.42083 -3.72513 5.56781
v -11.20583 -2.130131 6.122833
v -5.21283 -3.72513 -0.400177
v -9.179825 -1.53413 -0.1591797
v -9.179825 -3.72513 -0.1591797
v -5.21283 -0.9441299 -0.400177
v -12.70083 -2.11413 0.5398254
v -9.179825 -3.72513 -0.1591797
v -9.179825 -1.53413 -0.1591797
v -12.70083 -3.72513 0.5398254
v -12.70083 -2.11413 0.5398254
v -16.11383 -3.72513 1.697815
v -12.70083 -3.72513 0.5398254
v -16.11383 -2.674129 1.697815
v -16.45083 -3.72513 8.292816
v -13.90683 -2.69813 7.038818
v -13.90683 -3.72513 7.038818
v -16.45083 -3.23513 8.292816
v -11.20583 -2.130131 6.122833
v -13.90683 -3.72513 7.038818
v -13.90683 -2.69813 7.038818
v -11.20583 -3.72513 6.122833
v 20.02417 -2.675131 1.697815
v 23.25517 -3.72513 3.288818
v 23.25517 -3.20513 3.288818
v 20.02417 -3.72513 1.697815
v 20.02417 -2.675131 1.697815
v 16.61118 -3.72513 0.5398254
v 20.02417 -3.72513 1.697815
v 16.61118 -2.11413 0.5398254
v 13.07817 -3.72513 -0.1591797
v 16.61118 -2.11413 0.5398254
v 13.07817 -1.53413 -0.1591797
v 16.61118 -3.72513 0.5398254
v 13.07817 -1.53413 -0.1591797
v 9.123169 -3.72513 -0.400177
v 13.07817 -3.72513 -0.1591797
v 9.123169 -0.9441299 -0.400177
v 20.36118 -3.72513 8.292816
v 17.80518 -2.69813 7.038818
v 20.36118 -3.23513 8.292816
v 17.80518 -3.72513 7.038818
v 15.11617 -2.130131 6.122833
v 17.80518 -3.72513 7.038818
v 15.11617 -3.72513 6.122833
v 17.80518 -2.69813 7.038818
v 15.11617 -3.72513 6.122833
v 12.33017 -1.54213 5.568817
v 15.11617 -2.130131 6.122833
v 12.33017 -3.72513 5.568817
v 9.123169 -0.9441299 5.38681
v 12.33017 -3.72513 5.568817
v 9.123169 -3.72513 5.38681
v 12.33017 -1.54213 5.568817
vn 0 -0.5773503 0
vn 0 -0.5773503 0
vn 0 -0.5773503 0
vn 0 -0.5773503 0
vn 0 0.5773503 0
vn 0 0.5773503 0
vn 0 0.5773503 0
vn 0 0.5773503 0
vn -0.2551923 0 -0.5178902
vn -0.2551923 0 -0.5178902
vn -0.2551923 0 -0.5178902
vn -0.2551923 0 -0.5178902
vn 0.03234553 0 0.5764434
vn 0.03234553 0 0.5764434
vn 0.03234553 0 0.5764434
vn 0.03234553 0 0.5764434
vn 0.1125616 0 0.5662713
vn 0.1125616 0 0.5662713
vn 0.1125616 0 0.5662713
vn 0.1125616 0 0.5662713
vn -0.03522321 0 -0.5762748
vn -0.03522321 0 -0.5762748
vn -0.03522321 0 -0.5762748
vn -0.03522321 0 -0.5762748
vn -0.1125616 0 -0.5662713
vn -0.1125616 0 -0.5662713
vn -0.1125616 0 -0.5662713
vn -0.1125616 0 -0.5662713
vn -0.1853433 0 -0.5467917
vn -0.1853433 0 -0.5467917
vn -0.1853433 0 -0.5467917
vn -0.1853433 0 -0.5467917
vn 0.2551923 0 0.5178902
vn 0.2551923 0 0.5178902
vn 0.2551923 0 0.5178902
vn 0.2551923 0 0.5178902
vn 0.1853433 0 0.5467917
vn 0.1853433 0 0.5467917
vn 0.1853433 0 0.5467917
vn 0.1853433 0 0.5467917
vn 0.2551923 0 -0.5178902
vn 0.2551923 0 -0.5178902
vn 0.2551923 0 -0.5178902
vn 0.2551923 0 -0.5178902
vn 0.1853433 0 -0.5467917
vn 0.1853433 0 -0.5467917
vn 0.1853433 0 -0.5467917
vn 0.1853433 0 -0.5467917
vn 0.1120061 0 -0.5663815
vn 0.1120061 0 -0.5663815
vn 0.1120061 0 -0.5663815
vn 0.1120061 0 -0.5663815
vn 0.03522321 0 -0.5762748
vn 0.03522321 0 -0.5762748
vn 0.03522321 0 -0.5762748
vn 0.03522321 0 -0.5762748
vn -0.2540336 0 0.5184595
vn -0.2540336 0 0.5184595
vn -0.2540336 0 0.5184595
vn -0.2540336 0 0.5184595
vn -0.1865546 0 0.5463797
vn -0.1865546 0 0.5463797
vn -0.1865546 0 0.5463797
vn -0.1865546 0 0.5463797
vn -0.1125616 0 0.5662713
vn -0.1125616 0 0.5662713
vn -0.1125616 0 0.5662713
vn -0.1125616 0 0.5662713
vn -0.03234553 0 0.5764434
vn -0.03234553 0 0.5764434
vn -0.03234553 0 0.5764434
vn -0.03234553 0 0.5764434
vt 0 0
vt 0 0
vt 0 0
vt 0 0
vt 0 0
vt 0 0
vt 0 0
vt 0 0
vt 0 0
vt 0 0
vt 0 0
vt 0 0
vt 0 0
vt 0 0
vt 0 0
vt 0 0
vt 0 0
vt 0 0
vt 0 0
vt 0 0
vt 0 0
vt 0 0
vt 0 0
vt 0 0
vt 0 0
vt 0 0
vt 0 0
vt 0 0
vt 0 0
vt 0 0
vt 0 0
vt 0 0
vt 0 0
vt 0 0
vt 0 0
vt 0 0
vt 0 0
vt 0 0
vt 0 0
vt 0 0
vt 0 0
vt 0 0
vt 0 0
vt 0 0
vt 0 0
vt 0 0
vt 0 0
vt 0 0
vt 0 0
vt 0 0
vt 0 0
vt 0 0
vt 0 0
vt 0 0
vt 0 0
vt 0 0
vt 0 0
vt 0 0
vt 0 0
vt 0 0
vt 0 0
vt 0 0
vt 0 0
vt 0 0
vt 0 0
vt 0 0
vt 0 0
vt 0 0
vt 0 0
vt 0 0
vt 0 0
vt 0 0
usemtl VMtl1502
f 53/53/53 52/52/52 51/51/51
f 54/54/54 51/51/51 52/52/52
f 57/57/57 56/56/56 55/55/55
f 58/58/58 55/55/55 56/56/56
f 61/61/61 60/60/60 59/59/59
f 62/62/62 59/59/59 60/60/60
f 65/65/65 64/64/64 63/63/63
f 66/66/66 63/63/63 64/64/64
f 69/69/69 68/68/68 67/67/67
f 70/70/70 67/67/67 68/68/68
f 73/73/73 72/72/72 71/71/71
f 74/74/74 71/71/71 72/72/72
f 77/77/77 76/76/76 75/75/75
f 78/78/78 75/75/75 76/76/76
f 81/81/81 80/80/80 79/79/79
f 82/82/82 79/79/79 80/80/80
f 85/85/85 84/84/84 83/83/83
f 86/86/86 83/83/83 84/84/84
f 89/89/89 88/88/88 87/87/87
f 90/90/90 87/87/87 88/88/88
f 93/93/93 92/92/92 91/91/91
f 94/94/94 91/91/91 92/92/92
f 97/97/97 96/96/96 95/95/95
f 98/98/98 95/95/95 96/96/96
f 101/101/101 100/100/100 99/99/99
f 102/102/102 99/99/99 100/100/100
f 105/105/105 104/104/104 103/103/103
f 106/106/106 103/103/103 104/104/104
f 109/109/109 108/108/108 107/107/107
f 110/110/110 107/107/107 108/108/108
f 113/113/113 112/112/112 111/111/111
f 114/114/114 111/111/111 112/112/112
f 117/117/117 116/116/116 115/115/115
f 118/118/118 115/115/115 116/116/116
f 121/121/121 120/120/120 119/119/119
f 122/122/122 119/119/119 120/120/120
g VMtl1503
v 6.724174 2.338869 5.13382
v 5.988174 -1.43413 5.13382
v 6.724174 -1.43413 5.13382
v 5.988174 2.338869 5.13382
v 5.988174 2.338869 5.13382
v 5.988174 -1.43413 5.989807
v 5.988174 -1.43413 5.13382
v 5.988174 2.338869 5.989807
v 5.988174 2.338869 5.989807
v 6.724174 -1.43413 5.989807
v 5.988174 -1.43413 5.989807
v 6.724174 2.338869 5.989807
v 6.724174 2.338869 5.989807
v 6.724174 -1.43413 5.13382
v 6.724174 -1.43413 5.989807
v 6.724174 2.338869 5.13382
v -2.090828 2.338869 5.13382
v -2.825829 -1.43413 5.13382
v -2.090828 -1.43413 5.13382
v -2.825829 2.338869 5.13382
v -2.825829 2.338869 5.13382
v -2.825829 -1.43413 5.989807
v -2.825829 -1.43413 5.13382
v -2.825829 2.338869 5.989807
v -2.825829 2.338869 5.989807
v -2.090828 -1.43413 5.989807
v -2.825829 -1.43413 5.989807
v -2.090828 2.338869 5.989807
v -2.090828 2.338869 5.989807
v -2.090828 -1.43413 5.13382
v -2.090828 -1.43413 5.989807
v -2.090828 2.338869 5.13382
v 7.797173 3.563869 8.13681
v 7.797173 2.338869 -1.618164
v 7.797173 2.338869 8.13681
v 7.797173 3.563869 -1.618164
v -3.886826 3.563869 8.13681
v 7.797173 2.338869 8.13681
v -3.886826 2.338869 8.13681
v 7.797173 3.563869 8.13681
v -3.886826 2.338869 -1.618164
v -3.886826 3.563869 8.13681
v -3.886826 2.338869 8.13681
v -3.886826 3.563869 -1.618164
vn 0 0 -0.5773503
vn 0 0 -0.5773503
vn 0 0 -0.5773503
vn 0 0 -0.5773503
vn -0.5773503 0 0
vn -0.5773503 0 0
vn -0.5773503 0 0
vn -0.5773503 0 0
vn 0 0 0.5773503
vn 0 0 0.5773503
vn 0 0 0.5773503
vn 0 0 0.5773503
vn 0.5773503 0 0
vn 0.5773503 0 0
vn 0.5773503 0 0
vn 0.5773503 0 0
vn 0 0 -0.5773503
vn 0 0 -0.5773503
vn 0 0 -0.5773503
vn 0 0 -0.5773503
vn -0.5773503 0 0
vn -0.5773503 0 0
vn -0.5773503 0 0
vn -0.5773503 0 0
vn 0 0 0.5773503
vn 0 0 0.5773503
vn 0 0 0.5773503
vn 0 0 0.5773503
vn 0.5773503 0 0
vn 0.5773503 0 0
vn 0.5773503 0 0
vn 0.5773503 0 0
vn 0.5773503 0 0
vn 0.5773503 0 0
vn 0.5773503 0 0
vn 0.5773503 0 0
vn 0 0 0.5773503
vn 0 0 0.5773503
vn 0 0 0.5773503
vn 0 0 0.5773503
vn -0.5773503 0 0
vn -0.5773503 0 0
vn -0.5773503 0 0
vn -0.5773503 0 0
vt 0 -1
vt 0.2935 -2.5066
vt 0 -2.5066
vt 0.2935 -1
vt -0.1948 -1
vt 0.1475 -2.5066
vt -0.1946 -2.5066
vt 0.1475 -0.9998
vt 0.0322 -1
vt 0.3259 -2.5066
vt 0.0322 -2.5066
vt 0.3257 -0.9998
vt 0.2271 -1
vt 0.5696 -2.5066
vt 0.2271 -2.5066
vt 0.5696 -1
vt 0.0002 -1
vt 0.2646 -2.3582
vt 0 -2.3582
vt 0.2646 -1
vt -0.1948 -1
vt 0.1138 -2.3582
vt -0.1948 -2.3582
vt 0.1135 -0.9998
vt 0.0327 -1
vt 0.2971 -2.3582
vt 0.0325 -2.3582
vt 0.2971 -1
vt 0.2273 -1
vt 0.5359 -2.3582
vt 0.2271 -2.3582
vt 0.5359 -1
vt 0 0.5
vt 3.9839 0
vt 0 0
vt 3.9839 0.5
vt 0 0.5
vt 4.7678 0
vt 0 0
vt 4.7678 0.5
vt 1.178 0.0002
vt 5.1619 0.5
vt 5.1619 0.0002
vt 1.178 0.5
usemtl VMtl1503
f 125/125/125 124/124/124 123/123/123
f 126/126/126 123/123/123 124/124/124
f 129/129/129 128/128/128 127/127/127
f 130/130/130 127/127/127 128/128/128
f 133/133/133 132/132/132 131/131/131
f 134/134/134 131/131/131 132/132/132
f 137/137/137 136/136/136 135/135/135
f 138/138/138 135/135/135 136/136/136
f 141/141/141 140/140/140 139/139/139
f 142/142/142 139/139/139 140/140/140
f 145/145/145 144/144/144 143/143/143
f 146/146/146 143/143/143 144/144/144
f 149/149/149 148/148/148 147/147/147
f 150/150/150 147/147/147 148/148/148
f 153/153/153 152/152/152 151/151/151
f 154/154/154 151/151/151 152/152/152
f 157/157/157 156/156/156 155/155/155
f 158/158/158 155/155/155 156/156/156
f 161/161/161 160/160/160 159/159/159
f 162/162/162 159/159/159 160/160/160
f 165/165/165 164/164/164 163/163/163
f 166/166/166 163/163/163 164/164/164
g VMtl1504
v -12.70083 -2.620131 0.5398254
v -13.90683 -3.127131 7.038818
v -16.11383 -3.188129 1.697815
v -16.45083 -3.72513 8.292816
v -19.34483 -3.72513 3.288818
v -16.11383 -3.188129 1.697815
v -13.90683 -3.127131 7.038818
v -16.45083 -3.72513 8.292816
v -16.11383 -3.188129 1.697815
v 23.25517 -3.72513 3.288818
v 20.36118 -3.72513 8.292816
v 20.02417 -3.188129 1.697815
v 20.36118 -3.72513 8.292816
v 17.80518 -3.127131 7.038818
v 20.02417 -3.188129 1.697815
v 15.11617 -2.539129 6.122833
v 16.61118 -2.620131 0.5398254
v 17.80518 -3.127131 7.038818
v 17.80518 -3.127131 7.038818
v 16.61118 -2.620131 0.5398254
v 20.02417 -3.188129 1.697815
v -2.210831 -3.72513 5.989807
v -2.210831 -0.9441299 5.989807
v -2.210831 -0.9441299 7.219818
v -2.210831 -3.23513 11.37982
v -2.210831 -3.72513 11.37982
v -13.90683 -3.127131 7.038818
v -12.70083 -2.620131 0.5398254
v -11.20583 -2.53813 6.122833
v -8.42083 -1.97113 5.56781
v -9.179825 -2.032129 -0.1591797
v 9.123169 -1.43413 -0.400177
v 13.07817 -2.032129 -0.1591797
v 9.123169 -1.43413 5.38681
v 12.33017 -1.97113 5.568817
v 16.61118 -2.620131 0.5398254
v 15.11617 -2.539129 6.122833
v 6.12117 -3.23513 11.37982
v 6.12117 -0.9441299 7.219818
v 6.12117 -0.9441299 5.989807
v 6.12117 -3.72513 5.989807
v 6.12117 -3.72513 11.37982
v -5.21283 -1.43413 -0.400177
v -8.42083 -1.97113 5.56781
v -9.179825 -2.032129 -0.1591797
v -5.21283 -1.43413 5.38681
v 9.485176 -0.9441299 7.219818
v -5.58683 -0.9441299 -1.618164
v 9.485176 -0.9441299 -1.618164
v -5.58683 -0.9441299 7.219818
v -5.58683 -0.9441299 -1.618164
v -5.58683 -3.72513 7.219818
v -5.58683 -3.72513 -1.618164
v -5.58683 -0.9441299 7.219818
v 9.485176 -0.9441299 7.219818
v 9.485176 -3.72513 -1.618164
v 9.485176 -3.72513 7.219818
v 9.485176 -0.9441299 -1.618164
v -5.58683 -0.9441299 7.219818
v 9.485176 -3.72513 7.219818
v -5.58683 -3.72513 7.219818
v 9.485176 -0.9441299 7.219818
v 6.12117 -1.606131 7.038818
v -2.210831 -3.72513 11.25882
v -2.210831 -1.606131 7.038818
v 6.12117 -3.72513 11.25882
vn -0.08485975 0.5703499 0.02886386
vn -0.08485975 0.5703499 0.02886386
vn -0.08485975 0.5703499 0.02886386
vn -0.07390153 0.5710048 0.04272432
vn -0.07390153 0.5710048 0.04272432
vn -0.07390153 0.5710048 0.04272432
vn -0.113172 0.564705 0.04041856
vn -0.113172 0.564705 0.04041856
vn -0.113172 0.564705 0.04041856
vn 0.07390153 0.5710048 0.04272432
vn 0.07390153 0.5710048 0.04272432
vn 0.07390153 0.5710048 0.04272432
vn 0.1126166 0.5648155 0.04042647
vn 0.1126166 0.5648155 0.04042647
vn 0.1126166 0.5648155 0.04042647
vn 0.1160263 0.5651233 0.02251257
vn 0.1160263 0.5651233 0.02251257
vn 0.1160263 0.5651233 0.02251257
vn 0.08485975 0.5703499 0.02886386
vn 0.08485975 0.5703499 0.02886386
vn 0.08485975 0.5703499 0.02886386
vn -0.5773503 0 0
vn -0.5773503 0 0
vn -0.5773503 0 0
vn -0.5773503 0 0
vn -0.5773503 0 0
vn -0.1154722 0.5652366 0.02251709
vn -0.1154722 0.5652366 0.02251709
vn -0.1154722 0.5652366 0.02251709
vn -0.1108183 0.5662124 0.02135562
vn -0.0940677 0.5696001 0.006348127
vn 0.08657566 0.5708222 0
vn 0.08657566 0.5708222 0
vn 0.08657566 0.5708222 0
vn 0.09472273 0.5694914 0.006353353
vn 0.09350578 0.5696926 0.006349158
vn 0.1108183 0.5662124 0.02135562
vn 0.5773503 0 0
vn 0.5773503 0 0
vn 0.5773503 0 0
vn 0.5773503 0 0
vn 0.5773503 0 0
vn -0.08600786 0.5708844 0.005195105
vn -0.08600786 0.5708844 0.005195105
vn -0.08600786 0.5708844 0.005195105
vn -0.09529039 0.5694322 0
vn 0 0.5773503 0
vn 0 0.5773503 0
vn 0 0.5773503 0
vn 0 0.5773503 0
vn -0.5773503 0 0
vn -0.5773503 0 0
vn -0.5773503 0 0
vn -0.5773503 0 0
vn 0.5773503 0 0
vn 0.5773503 0 0
vn 0.5773503 0 0
vn 0.5773503 0 0
vn 0 0 0.5773503
vn 0 0 0.5773503
vn 0 0 0.5773503
vn 0 0 0.5773503
vn 0 0.5159353 0.2591219
vn 0 0.5159353 0.2591219
vn 0 0.5159353 0.2591219
vn 0 0.5159353 0.2591219
vt -0.0449 -0.8648
vt 0.1545 -0.3857
vt 0.2383 -0.8306
vt -0.4526 0
vt 0 0
vt -0.0183 -0.2844
vt -0.2275 0
vt 0 0
vt -0.2556 -0.4517
vt -0.2776 0.3379
vt 0.2375 0
vt -0.469 0
vt 0 0
vt -0.1526 -0.2695
vt -0.7065 0
vt -0.6162 0
vt 0 0.0002
vt -0.6353 -0.3091
vt -0.1011 -0.179
vt -0.4624 -0.7861
vt -0.6553 -0.4487
vt 0.0413 -0.8118
vt -0.3774 -0.8118
vt -0.3774 -0.6274
vt -0.0325 0
vt 0.0413 0
vt 0.1738 -1.2971
vt -0.0256 -0.8184
vt 0.3137 -1.1177
vt 0.4749 -0.9578
vt 0.1768 -0.6172
vt -0.6819 -0.0579
vt -0.2581 0
vt -0.5627 -0.6624
vt -0.219 -0.615
vt 0.1306 0.0005
vt 0.0896 -0.6143
vt -0.0737 -0.8118
vt -0.4187 -0.1843
vt -0.4187 0.0002
vt 0 0.0002
vt 0 -0.8118
vt 0 0
vt -0.2815 -0.4514
vt -0.3142 0
vt -0.0264 -0.4517
vt 0 -0.1843
vt -1.3318 -2.4543
vt -1.3318 -0.1843
vt 0 -2.4543
vt 0 -0.1843
vt 1.3318 -0.6033
vt 0 -0.6033
vt 1.3318 -0.1846
vt 0 -0.1843
vt 1.3318 -0.6033
vt 0 -0.6033
vt 1.3318 -0.1843
vt -0.5867 -0.1843
vt 1.6829 -0.6035
vt -0.5867 -0.6033
vt 1.6829 -0.1846
vt -0.5525 -0.3137
vt 0.7014 0.3987
vt 0.7014 -0.3137
vt -0.5525 0.3987
usemtl VMtl1504
f 169/169/169 168/168/168 167/167/167
f 172/172/172 171/171/171 170/170/170
f 175/175/175 174/174/174 173/173/173
f 178/178/178 177/177/177 176/176/176
f 181/181/181 180/180/180 179/179/179
f 184/184/184 183/183/183 182/182/182
f 187/187/187 186/186/186 185/185/185
f 190/190/190 189/189/189 188/188/188
f 188/188/188 191/191/191 190/190/190
f 191/191/191 188/188/188 192/192/192
f 195/195/195 194/194/194 193/193/193
f 196/196/196 194/194/194 195/195/195
f 194/194/194 196/196/196 197/197/197
f 200/200/200 199/199/199 198/198/198
f 199/199/199 200/200/200 201/201/201
f 201/201/201 202/202/202 199/199/199
f 203/203/203 202/202/202 201/201/201
f 206/206/206 205/205/205 204/204/204
f 204/204/204 207/207/207 206/206/206
f 208/208/208 207/207/207 204/204/204
f 211/211/211 210/210/210 209/209/209
f 212/212/212 209/209/209 210/210/210
f 215/215/215 214/214/214 213/213/213
f 216/216/216 213/213/213 214/214/214
f 219/219/219 218/218/218 217/217/217
f 220/220/220 217/217/217 218/218/218
f 223/223/223 222/222/222 221/221/221
f 224/224/224 221/221/221 222/222/222
f 227/227/227 226/226/226 225/225/225
f 228/228/228 225/225/225 226/226/226
f 231/231/231 230/230/230 229/229/229
f 232/232/232 229/229/229 230/230/230
g VMtl1506
v 34.90318 11.06087 -7.623169
v 24.85917 14.40987 -17.66718
v 34.90318 11.06087 -27.71118
v -20.96083 14.40987 -17.66718
v -31.00483 11.06187 -7.623169
v -31.00483 11.06187 -27.71118
v -20.96083 14.40987 -17.66718
v -25.49383 11.06187 -7.623169
v -31.00483 11.06187 -7.623169
v -15.43783 14.40987 -17.66718
v 29.39317 11.06087 -7.623169
v 24.85917 14.40987 -17.66718
v 34.90318 11.06087 -7.623169
v 19.34917 14.40987 -17.66718
v 29.39317 11.06087 -7.623169
v 14.69418 15.96187 -13.01318
v 19.34917 14.40987 -17.66718
v 29.39317 11.06087 1.685822
v -25.49383 11.06187 -7.623169
v -10.78383 15.96187 -13.01318
v -25.49383 11.06187 1.685822
v -15.43783 14.40987 -17.66718
v -31.00483 11.06187 -27.71118
v 24.85917 14.40987 -17.66718
v -20.96083 14.40987 -17.66718
v 34.90318 11.06087 -27.71118
v 14.69418 15.96187 -13.01318
v -15.43783 14.40987 -17.66718
v 19.34917 14.40987 -17.66718
v -10.78383 15.96187 -13.01318
v -25.49383 11.06187 1.685822
v 14.69418 15.96187 -13.01318
v 29.39317 11.06087 1.685822
v -10.78383 15.96187 -13.01318
vn 0.182401 0.5477802 0
vn 0.182401 0.5477802 0
vn 0.182401 0.5477802 0
vn -0.182401 0.5477802 0
vn -0.182401 0.5477802 0
vn -0.182401 0.5477802 0
vn 0 0.5477802 0.182401
vn 0 0.5477802 0.182401
vn 0 0.5477802 0.182401
vn 0 0.5477802 0.182401
vn 0 0.5477802 0.182401
vn 0 0.5477802 0.182401
vn 0 0.5477802 0.182401
vn 0 0.5477802 0.182401
vn 0.182401 0.5477802 0
vn 0.182401 0.5477802 0
vn 0.182401 0.5477802 0
vn 0.182401 0.5477802 0
vn -0.182401 0.5477802 0
vn -0.182401 0.5477802 0
vn -0.182401 0.5477802 0
vn -0.182401 0.5477802 0
vn 0 0.5477802 -0.182401
vn 0 0.5477802 -0.182401
vn 0 0.5477802 -0.182401
vn 0 0.5477802 -0.182401
vn 0 0.5477802 -0.182401
vn 0 0.5477802 -0.182401
vn 0 0.5477802 -0.182401
vn 0 0.5477802 -0.182401
vn 0 0.5477802 0.182401
vn 0 0.5477802 0.182401
vn 0 0.5477802 0.182401
vn 0 0.5477802 0.182401
vt 0 0
vt 1.2131 1.2788
vt 2.4263 0
vt 1.1741 1.2375
vt 2.3481 0
vt 0 0
vt 0.5212 2.2334
vt 0 1.0156
vt -0.6338 1.0156
vt 1.155 2.2334
vt 6.3115 1.0156
vt 5.7903 2.2334
vt 6.9456 1.0156
vt 5.1562 2.2334
vt 0 0.6318
vt 0.6509 2.5029
vt 1.2131 1.9104
vt -1.1243 0.6318
vt 2.3481 0.6113
vt 1.7183 2.4224
vt 3.4365 0.6113
vt 1.1741 1.8489
vt 6.8782 0.0002
vt 1.0483 1.105
vt 5.8298 1.105
vt 0 0.0002
vt 2.1094 1.6172
vt 5.2546 1.105
vt 1.6235 1.105
vt 4.7688 1.6172
vt 0 0.0002
vt 4.6209 1.782
vt 6.3115 0.0002
vt 1.6904 1.782
usemtl VMtl1506
f 235/235/235 234/234/234 233/233/233
f 238/238/238 237/237/237 236/236/236
f 241/241/241 240/240/240 239/239/239
f 242/242/242 239/239/239 240/240/240
f 245/245/245 244/244/244 243/243/243
f 246/246/246 243/243/243 244/244/244
f 249/249/249 248/248/248 247/247/247
f 250/250/250 247/247/247 248/248/248
f 253/253/253 252/252/252 251/251/251
f 254/254/254 251/251/251 252/252/252
f 257/257/257 256/256/256 255/255/255
f 258/258/258 255/255/255 256/256/256
f 261/261/261 260/260/260 259/259/259
f 262/262/262 259/259/259 260/260/260
f 265/265/265 264/264/264 263/263/263
f 266/266/266 263/263/263 264/264/264
