# Aaro4130 OBJ Exporter v2.0
mtllib Sincerity_building_Tool.mtl
g VMtl1703
v 43.35324 -10.85199 7.410706
v 12.01523 10.85201 7.904663
v 43.35425 10.85201 7.410706
v 12.01523 -10.85199 7.904663
v 9.35025 -10.85199 -7.734314
v 43.11224 10.85201 -8.264282
v 9.351227 10.85201 -7.734314
v 43.11224 -10.85199 -8.264282
v 9.254242 -10.85199 -13.76331
v 9.351227 10.85201 -7.734314
v 9.254242 10.85201 -13.76331
v 9.35025 -10.85199 -7.734314
v -1.368774 -10.85199 0.8867188
v -1.500763 10.85201 -7.553284
v -1.368774 10.85201 0.8867188
v -1.500763 -10.85199 -7.553284
v -33.91275 -10.85199 1.405701
v -1.368774 10.85201 0.8867188
v -33.91177 10.85201 1.405701
v -1.368774 -10.85199 0.8867188
v 12.08823 -10.85199 12.72766
v -31.30777 10.85201 13.41467
v 12.08823 10.85201 12.72766
v -31.30777 -10.85199 13.41467
v 12.01523 -10.85199 7.904663
v 12.08823 10.85201 12.72766
v 12.01523 10.85201 7.904663
v 12.08823 -10.85199 12.72766
vn 0.009236422 0 0.5772764
vn 0.009236422 0 0.5772764
vn 0.009236422 0 0.5772764
vn 0.009236422 0 0.5772764
vn -0.009236422 0 -0.5772764
vn -0.009236422 0 -0.5772764
vn -0.009236422 0 -0.5772764
vn -0.009236422 0 -0.5772764
vn 0.5772764 0 -0.009236422
vn 0.5772764 0 -0.009236422
vn 0.5772764 0 -0.009236422
vn 0.5772764 0 -0.009236422
vn -0.5772764 0 0.009236422
vn -0.5772764 0 0.009236422
vn -0.5772764 0 0.009236422
vn -0.5772764 0 0.009236422
vn -0.009236422 0 -0.5772764
vn -0.009236422 0 -0.5772764
vn -0.009236422 0 -0.5772764
vn -0.009236422 0 -0.5772764
vn 0.009236422 0 0.5772764
vn 0.009236422 0 0.5772764
vn 0.009236422 0 0.5772764
vn 0.009236422 0 0.5772764
vn 0.5772764 0 -0.009236422
vn 0.5772764 0 -0.009236422
vn 0.5772764 0 -0.009236422
vn 0.5772764 0 -0.009236422
vt 1.165 0.0002
vt 0 2.4441
vt 1.165 2.4441
vt 0 0.0002
vt 0 -5.5999
vt 0.8999 0
vt 0.8999 -5.5999
vt 0 0.0002
vt -1 -1.1111
vt 0 0
vt 0 -1.1111
vt -1 0
vt 0.1111 -1.5554
vt 1.1111 0.0002
vt 1.1111 -1.5554
vt 0.1111 0
vt -1 -6
vt 0 0.0002
vt 0 -6
vt -1 0.0002
vt 1.4797 0.0002
vt 0 2.4487
vt 1.4797 2.4487
vt 0 0.0002
vt 0.1602 0
vt 0 2.4712
vt 0.1602 2.4712
vt 0 0
usemtl VMtl1703
f 3/3/3 2/2/2 1/1/1
f 4/4/4 1/1/1 2/2/2
f 7/7/7 6/6/6 5/5/5
f 8/8/8 5/5/5 6/6/6
f 11/11/11 10/10/10 9/9/9
f 12/12/12 9/9/9 10/10/10
f 15/15/15 14/14/14 13/13/13
f 16/16/16 13/13/13 14/14/14
f 19/19/19 18/18/18 17/17/17
f 20/20/20 17/17/17 18/18/18
f 23/23/23 22/22/22 21/21/21
f 24/24/24 21/21/21 22/22/22
f 27/27/27 26/26/26 25/25/25
f 28/28/28 25/25/25 26/26/26
g VMtl1704
v -33.81577 -10.85199 7.434692
v -31.40378 -10.85199 7.385681
v -33.91275 -10.85199 1.405701
v -1.368774 -10.85199 0.8867188
v -31.30777 -10.85199 13.41467
v 12.08823 -10.85199 12.72766
v 2.116241 -10.85199 -7.613281
v -1.500763 -10.85199 -7.553284
v 2.019226 -10.85199 -13.64233
v 9.35025 -10.85199 -7.734314
v 9.254242 -10.85199 -13.76331
v 12.01523 -10.85199 7.904663
v 43.11224 -10.85199 -8.264282
v 43.35324 -10.85199 7.410706
vn 0 -0.5773503 0
vn 0 -0.5773503 0
vn 0 -0.5773503 0
vn 0 -0.5773503 0
vn 0 -0.5773503 0
vn 0 -0.5773503 0
vn 0 -0.5773503 0
vn 0 -0.5773503 0
vn 0 -0.5773503 0
vn 0 -0.5773503 0
vn 0 -0.5773503 0
vn 0 -0.5773503 0
vn 0 -0.5773503 0
vn 0 -0.5773503 0
vt 0 0
vt 0 0
vt 0 0
vt 0 0
vt 0 0
vt 0 0
vt 0 0
vt 0 0
vt 0 0
vt 0 0
vt 0 0
vt 0 0
vt 0 0
vt 0 0
usemtl VMtl1704
f 31/31/31 30/30/30 29/29/29
f 30/30/30 31/31/31 32/32/32
f 33/33/33 30/30/30 32/32/32
f 32/32/32 34/34/34 33/33/33
f 35/35/35 34/34/34 32/32/32
f 32/32/32 36/36/36 35/35/35
f 37/37/37 34/34/34 35/35/35
f 38/38/38 34/34/34 37/37/37
f 38/38/38 37/37/37 39/39/39
f 38/38/38 40/40/40 34/34/34
f 40/40/40 38/38/38 41/41/41
f 42/42/42 40/40/40 41/41/41
g VMtl1705
v 9.254242 10.85201 -13.76331
v 9.351227 10.85201 -7.734314
v 2.019226 10.85201 -13.64233
v 2.116241 10.85201 -7.613281
v 43.35425 10.85201 7.410706
v 43.11224 10.85201 -8.264282
v -1.500763 10.85201 -7.553284
v -1.368774 10.85201 0.8867188
v -33.91177 10.85201 1.405701
v -31.40378 10.85201 7.385681
v -33.81577 10.85201 7.434692
v 12.01523 10.85201 7.904663
v -31.30777 10.85201 13.41467
v 12.08823 10.85201 12.72766
v 43.11224 -10.85199 -8.264282
v 43.35425 10.85201 7.410706
v 43.11224 10.85201 -8.264282
v 43.35324 -10.85199 7.410706
v 2.019226 -10.85199 -13.64233
v 9.254242 10.85201 -13.76331
v 2.019226 10.85201 -13.64233
v 9.254242 -10.85199 -13.76331
v 2.116241 -10.85199 -7.613281
v 2.019226 10.85201 -13.64233
v 2.116241 10.85201 -7.613281
v 2.019226 -10.85199 -13.64233
v -1.500763 -10.85199 -7.553284
v 2.116241 10.85201 -7.613281
v -1.500763 10.85201 -7.553284
v 2.116241 -10.85199 -7.613281
v -33.81577 -10.85199 7.434692
v -33.91177 10.85201 1.405701
v -33.81577 10.85201 7.434692
v -33.91275 -10.85199 1.405701
v -31.40378 -10.85199 7.385681
v -33.81577 10.85201 7.434692
v -31.40378 10.85201 7.385681
v -33.81577 -10.85199 7.434692
v -31.30777 -10.85199 13.41467
v -31.40378 10.85201 7.385681
v -31.30777 10.85201 13.41467
v -31.40378 -10.85199 7.385681
vn 0 0.5773503 0
vn 0 0.5773503 0
vn 0 0.5773503 0
vn 0 0.5773503 0
vn 0 0.5773503 0
vn 0 0.5773503 0
vn 0 0.5773503 0
vn 0 0.5773503 0
vn 0 0.5773503 0
vn 0 0.5773503 0
vn 0 0.5773503 0
vn 0 0.5773503 0
vn 0 0.5773503 0
vn 0 0.5773503 0
vn 0.5772853 0 -0.00865928
vn 0.5772853 0 -0.00865928
vn 0.5772853 0 -0.00865928
vn 0.5772853 0 -0.00865928
vn -0.009813537 0 -0.5772669
vn -0.009813537 0 -0.5772669
vn -0.009813537 0 -0.5772669
vn -0.009813537 0 -0.5772669
vn -0.5772764 0 0.009236422
vn -0.5772764 0 0.009236422
vn -0.5772764 0 0.009236422
vn -0.5772764 0 0.009236422
vn -0.009813537 0 -0.5772669
vn -0.009813537 0 -0.5772669
vn -0.009813537 0 -0.5772669
vn -0.009813537 0 -0.5772669
vn -0.5772764 0 0.009236422
vn -0.5772764 0 0.009236422
vn -0.5772764 0 0.009236422
vn -0.5772764 0 0.009236422
vn 0.0115447 0 0.5772349
vn 0.0115447 0 0.5772349
vn 0.0115447 0 0.5772349
vn 0.0115447 0 0.5772349
vn -0.5772764 0 0.009236422
vn -0.5772764 0 0.009236422
vn -0.5772764 0 0.009236422
vn -0.5772764 0 0.009236422
vt 0.9229 -2.769
vt 0.5383 -2.769
vt 0.9229 -2.3076
vt 0.5383 -2.3076
vt -0.4614 -4.9229
vt 0.5383 -4.9229
vt 0.5383 -2.0769
vt 0 -2.0769
vt 0 0
vt -0.3845 -0.1538
vt -0.3845 0.0002
vt -0.4614 -2.9228
vt -0.769 -0.1538
vt -0.769 -2.9228
vt 0.657 0.4749
vt 0.3428 -0.4746
vt 0 0.0002
vt 1 0.0002
vt -1 -0.3333
vt 0 0
vt 0 -0.3333
vt -1 0
vt -1 -0.2776
vt 0 0
vt 0 -0.2776
vt -1 0
vt 0 -0.1665
vt 1 0
vt 1 -0.1665
vt 0 0.0002
vt -1.7998 -0.5
vt 0 0.0002
vt 0 -0.5
vt -1.7998 0.0002
vt -1 -0.1111
vt 0 0.0002
vt 0 -0.1111
vt -1 0.0002
vt 0 0.0002
vt 1 0.2778
vt 1 0.0002
vt 0 0.2778
usemtl VMtl1705
f 45/45/45 44/44/44 43/43/43
f 44/44/44 45/45/45 46/46/46
f 46/46/46 47/47/47 44/44/44
f 44/44/44 47/47/47 48/48/48
f 49/49/49 47/47/47 46/46/46
f 50/50/50 47/47/47 49/49/49
f 51/51/51 47/47/47 50/50/50
f 52/52/52 47/47/47 51/51/51
f 51/51/51 53/53/53 52/52/52
f 52/52/52 54/54/54 47/47/47
f 54/54/54 52/52/52 55/55/55
f 56/56/56 54/54/54 55/55/55
f 59/59/59 58/58/58 57/57/57
f 60/60/60 57/57/57 58/58/58
f 63/63/63 62/62/62 61/61/61
f 64/64/64 61/61/61 62/62/62
f 67/67/67 66/66/66 65/65/65
f 68/68/68 65/65/65 66/66/66
f 71/71/71 70/70/70 69/69/69
f 72/72/72 69/69/69 70/70/70
f 75/75/75 74/74/74 73/73/73
f 76/76/76 73/73/73 74/74/74
f 79/79/79 78/78/78 77/77/77
f 80/80/80 77/77/77 78/78/78
f 83/83/83 82/82/82 81/81/81
f 84/84/84 81/81/81 82/82/82
