# Aaro4130 OBJ Exporter v2.0
mtllib Truth_building_Tool.mtl
g VMtl1700
v 8.34021 -10.85215 -5.925964
v 40.8902 10.85185 -5.537964
v 8.34021 10.85185 -5.925964
v 40.8902 -10.85215 -5.537964
v 8.400208 -10.85215 -10.75195
v 8.34021 10.85185 -5.925964
v 8.400208 10.85185 -10.75195
v 8.34021 -10.85215 -5.925964
v -0.1528015 -10.85215 -1.211975
v -0.08380127 10.85185 -7.231995
v -0.1528015 10.85185 -1.211975
v -0.08380127 -10.85215 -7.231995
v -32.71478 -10.85115 -1.600952
v -0.1528015 10.85185 -1.211975
v -32.71478 10.85185 -1.600952
v -0.1528015 -10.85215 -1.211975
v 10.5332 -10.85215 12.18805
v -30.46179 10.85185 11.68903
v 10.5332 10.85185 12.18805
v -30.46179 -10.85115 11.68903
v 10.5722 -10.85215 8.569031
v 10.5332 10.85185 12.18805
v 10.5722 10.85185 8.569031
v 10.5332 -10.85215 12.18805
v 40.7222 -10.85215 8.927063
v 10.5722 10.85185 8.569031
v 40.7222 10.85185 8.927063
v 10.5722 -10.85215 8.569031
vn 0.006927704 0 -0.5773087
vn 0.006927704 0 -0.5773087
vn 0.006927704 0 -0.5773087
vn 0.006927704 0 -0.5773087
vn 0.5773087 0 0.006927704
vn 0.5773087 0 0.006927704
vn 0.5773087 0 0.006927704
vn 0.5773087 0 0.006927704
vn -0.5773154 0 -0.006350469
vn -0.5773154 0 -0.006350469
vn -0.5773154 0 -0.006350469
vn -0.5773154 0 -0.006350469
vn 0.006927704 0 -0.5773087
vn 0.006927704 0 -0.5773087
vn 0.006927704 0 -0.5773087
vn 0.006927704 0 -0.5773087
vn -0.006927704 0 0.5773087
vn -0.006927704 0 0.5773087
vn -0.006927704 0 0.5773087
vn -0.006927704 0 0.5773087
vn 0.5773087 0 0.006927704
vn 0.5773087 0 0.006927704
vn 0.5773087 0 0.006927704
vn 0.5773087 0 0.006927704
vn -0.006927704 0 0.5773087
vn -0.006927704 0 0.5773087
vn -0.006927704 0 0.5773087
vn -0.006927704 0 0.5773087
vt -1 0.6667
vt 0 6.6665
vt 0 0.6667
vt -1 6.6665
vt -1 -0.8887
vt 0 0
vt 0 -0.8887
vt -1 0
vt -0.4443 -1.1111
vt 0.5554 0.0002
vt 0.5554 -1.1111
vt -0.4443 0.0002
vt -1 -6
vt 0 0
vt 0 -6
vt -1 0
vt 1 0
vt 0 1.9263
vt 1 1.9263
vt 0 0
vt 0.1584 0.0002
vt 0 2.5139
vt 0.1584 2.5139
vt 0 0.0002
vt 1 0
vt 0 1.9399
vt 1 1.9399
vt 0 0
usemtl VMtl1700
f 3/3/3 2/2/2 1/1/1
f 4/4/4 1/1/1 2/2/2
f 7/7/7 6/6/6 5/5/5
f 8/8/8 5/5/5 6/6/6
f 11/11/11 10/10/10 9/9/9
f 12/12/12 9/9/9 10/10/10
f 15/15/15 14/14/14 13/13/13
f 16/16/16 13/13/13 14/14/14
f 19/19/19 18/18/18 17/17/17
f 20/20/20 17/17/17 18/18/18
f 23/23/23 22/22/22 21/21/21
f 24/24/24 21/21/21 22/22/22
f 27/27/27 26/26/26 25/25/25
f 28/28/28 25/25/25 26/26/26
g VMtl1701
v -0.1528015 -10.85215 -1.211975
v -32.71478 -10.85115 -1.600952
v -32.78479 -10.85115 4.43103
v -30.3718 -10.85115 4.462036
v -30.46179 -10.85115 11.68903
v 10.5722 -10.85215 8.569031
v 10.5332 -10.85215 12.18805
v 8.34021 -10.85215 -5.925964
v 40.8902 -10.85215 -5.537964
v 40.7222 -10.85215 8.927063
v 3.536194 -10.85215 -7.192993
v -0.08380127 -10.85215 -7.231995
v 8.400208 -10.85215 -10.75195
v 3.574219 -10.85215 -10.81195
vn 0 -0.5773503 0
vn 0 -0.5773503 0
vn 0 -0.5773503 0
vn 0 -0.5773503 0
vn 0 -0.5773503 0
vn 0 -0.5773503 0
vn 0 -0.5773503 0
vn 0 -0.5773503 0
vn 0 -0.5773503 0
vn 0 -0.5773503 0
vn 0 -0.5773503 0
vn 0 -0.5773503 0
vn 0 -0.5773503 0
vn 0 -0.5773503 0
vt 0 0
vt 0 0
vt 0 0
vt 0 0
vt 0 0
vt 0 0
vt 0 0
vt 0 0
vt 0 0
vt 0 0
vt 0 0
vt 0 0
vt 0 0
vt 0 0
usemtl VMtl1701
f 31/31/31 30/30/30 29/29/29
f 32/32/32 31/31/31 29/29/29
f 33/33/33 32/32/32 29/29/29
f 33/33/33 29/29/29 34/34/34
f 33/33/33 34/34/34 35/35/35
f 29/29/29 36/36/36 34/34/34
f 34/34/34 36/36/36 37/37/37
f 37/37/37 38/38/38 34/34/34
f 39/39/39 36/36/36 29/29/29
f 29/29/29 40/40/40 39/39/39
f 36/36/36 39/39/39 41/41/41
f 39/39/39 42/42/42 41/41/41
g VMtl1702
v 8.400208 10.85185 -10.75195
v 8.34021 10.85185 -5.925964
v 3.575195 10.85185 -10.81195
v 3.536194 10.85185 -7.192993
v -0.08380127 10.85185 -7.231995
v -0.1528015 10.85185 -1.211975
v 40.7222 10.85185 8.927063
v 40.8902 10.85185 -5.537964
v -32.71478 10.85185 -1.600952
v -30.3718 10.85185 4.462036
v -32.78479 10.85185 4.43103
v 10.5722 10.85185 8.569031
v -30.46179 10.85185 11.68903
v 10.5332 10.85185 12.18805
v 3.574219 -10.85215 -10.81195
v 8.400208 10.85185 -10.75195
v 3.575195 10.85185 -10.81195
v 8.400208 -10.85215 -10.75195
v 3.536194 -10.85215 -7.192993
v 3.575195 10.85185 -10.81195
v 3.536194 10.85185 -7.192993
v 3.574219 -10.85215 -10.81195
v -0.08380127 -10.85215 -7.231995
v 3.536194 10.85185 -7.192993
v -0.08380127 10.85185 -7.231995
v 3.536194 -10.85215 -7.192993
v -32.78479 -10.85115 4.43103
v -32.71478 10.85185 -1.600952
v -32.78479 10.85185 4.43103
v -32.71478 -10.85115 -1.600952
v -30.3718 -10.85115 4.462036
v -32.78479 10.85185 4.43103
v -30.3718 10.85185 4.462036
v -32.78479 -10.85115 4.43103
v -30.46179 -10.85115 11.68903
v -30.3718 10.85185 4.462036
v -30.46179 10.85185 11.68903
v -30.3718 -10.85115 4.462036
v 40.8902 -10.85215 -5.537964
v 40.7222 10.85185 8.927063
v 40.8902 10.85185 -5.537964
v 40.7222 -10.85215 8.927063
vn 0 0.5773503 0
vn 0 0.5773503 0
vn 0 0.5773503 0
vn 0 0.5773503 0
vn 0 0.5773503 0
vn 0 0.5773503 0
vn 0 0.5773503 0
vn 0 0.5773503 0
vn 0 0.5773503 0
vn 0 0.5773503 0
vn 0 0.5773503 0
vn 0 0.5773503 0
vn 0 0.5773503 0
vn 0 0.5773503 0
vn 0.006927704 0 -0.5773087
vn 0.006927704 0 -0.5773087
vn 0.006927704 0 -0.5773087
vn 0.006927704 0 -0.5773087
vn -0.5773154 0 -0.006350469
vn -0.5773154 0 -0.006350469
vn -0.5773154 0 -0.006350469
vn -0.5773154 0 -0.006350469
vn 0.006927704 0 -0.5773087
vn 0.006927704 0 -0.5773087
vn 0.006927704 0 -0.5773087
vn 0.006927704 0 -0.5773087
vn -0.5773154 0 -0.006350469
vn -0.5773154 0 -0.006350469
vn -0.5773154 0 -0.006350469
vn -0.5773154 0 -0.006350469
vn -0.007504919 0 0.5773014
vn -0.007504919 0 0.5773014
vn -0.007504919 0 0.5773014
vn -0.007504919 0 0.5773014
vn -0.5773154 0 -0.006350469
vn -0.5773154 0 -0.006350469
vn -0.5773154 0 -0.006350469
vn -0.5773154 0 -0.006350469
vn 0.5773087 0 0.006927704
vn 0.5773087 0 0.006927704
vn 0.5773087 0 0.006927704
vn 0.5773087 0 0.006927704
vt 2 -8.5
vt 1 -8.5
vt 2 -7.5
vt 1.25 -7.5
vt 1.25 -6.75
vt 0 -6.75
vt -2 -15.25
vt 1 -15.25
vt 0 0.0002
vt -1.25 -0.5
vt -1.25 0.0002
vt -2 -9
vt -2.75 -0.5
vt -2.75 -9
vt -1 -0.2222
vt 0 0
vt 0 -0.2222
vt -1 0
vt -0.4443 -0.1665
vt 0.5554 0.0002
vt 0.5554 -0.1665
vt -0.4443 0.0002
vt -1 -0.1665
vt 0 0
vt 0 -0.1665
vt -1 0
vt -1 -0.5554
vt 0 -0.5554
vt 0 -0.5554
vt -1 -0.5554
vt -1 -0.6665
vt 0 -0.5554
vt 0 -0.6665
vt -1 -0.5554
vt 0.4175 0.1013
vt 1.0727 -0.0542
vt 1.0727 -0.3874
vt 0.4175 0.4346
vt -1 -0.6665
vt 0 0
vt 0 -0.6665
vt -1 0
usemtl VMtl1702
f 45/45/45 44/44/44 43/43/43
f 46/46/46 44/44/44 45/45/45
f 47/47/47 44/44/44 46/46/46
f 44/44/44 47/47/47 48/48/48
f 48/48/48 49/49/49 44/44/44
f 44/44/44 49/49/49 50/50/50
f 51/51/51 49/49/49 48/48/48
f 52/52/52 49/49/49 51/51/51
f 52/52/52 51/51/51 53/53/53
f 52/52/52 54/54/54 49/49/49
f 54/54/54 52/52/52 55/55/55
f 56/56/56 54/54/54 55/55/55
f 59/59/59 58/58/58 57/57/57
f 60/60/60 57/57/57 58/58/58
f 63/63/63 62/62/62 61/61/61
f 64/64/64 61/61/61 62/62/62
f 67/67/67 66/66/66 65/65/65
f 68/68/68 65/65/65 66/66/66
f 71/71/71 70/70/70 69/69/69
f 72/72/72 69/69/69 70/70/70
f 75/75/75 74/74/74 73/73/73
f 76/76/76 73/73/73 74/74/74
f 79/79/79 78/78/78 77/77/77
f 80/80/80 77/77/77 78/78/78
f 83/83/83 82/82/82 81/81/81
f 84/84/84 81/81/81 82/82/82
