# Aaro4130 OBJ Exporter v2.0
mtllib Wisdom_building_Tool.mtl
g VMtl1694
v 7.590027 -10.85222 8.089844
v -24.97595 10.85178 8.071838
v 7.590027 10.85178 8.089844
v -24.97595 -10.85122 8.071838
v 47.38702 -10.85222 15.28687
v 7.594025 10.85178 15.33185
v 47.38702 10.85178 15.28687
v 7.593018 -10.85222 15.33185
v 20.83902 -10.85222 -3.978149
v 47.36804 10.85178 -4.00116
v 20.83902 10.85178 -3.978149
v 47.36804 -10.85222 -4.00116
v 20.83603 -10.85222 -11.20917
v 20.83902 10.85178 -3.978149
v 20.83603 10.85178 -11.20917
v 20.83902 -10.85222 -3.978149
v 3.951019 -10.85222 -11.18915
v 20.83603 10.85178 -11.20917
v 3.951019 10.85178 -11.18915
v 20.83603 -10.85222 -11.20917
v -24.98499 -10.85122 -7.558167
v 3.958038 10.85178 -7.581177
v -24.98499 10.85178 -7.558167
v 3.958038 -10.85222 -7.581177
vn 0 0 0.5773503
vn 0 0 0.5773503
vn 0 0 0.5773503
vn 0 0 0.5773503
vn 0 0 0.5773503
vn 0 0 0.5773503
vn 0 0 0.5773503
vn 0 0 0.5773503
vn 0 0 -0.5773503
vn 0 0 -0.5773503
vn 0 0 -0.5773503
vn 0 0 -0.5773503
vn 0.5773503 0 0
vn 0.5773503 0 0
vn 0.5773503 0 0
vn 0.5773503 0 0
vn 0 0 -0.5773503
vn 0 0 -0.5773503
vn 0 0 -0.5773503
vn 0 0 -0.5773503
vn 0 0 -0.5773503
vn 0 0 -0.5773503
vn 0 0 -0.5773503
vn 0 0 -0.5773503
vt 0.5554 3.7776
vt 1.5554 -2.2222
vt 1.5554 3.7776
vt 0.5554 -2.2222
vt 0.5554 11.1111
vt 1.5554 3.7776
vt 1.5554 11.1111
vt 0.5554 3.7776
vt 0.5554 6.2222
vt 1.5554 11.1111
vt 1.5554 6.2222
vt 0.5554 11.1111
vt 0.5554 6.2222
vt 1.5554 6.2222
vt 1.5554 6.2222
vt 0.5554 6.2222
vt 0.5554 3.1111
vt 1.5554 6.2222
vt 1.5554 3.1111
vt 0.5554 6.2222
vt 0.5554 -2.2222
vt 1.5554 3.1111
vt 1.5554 -2.2222
vt 0.5554 3.1111
usemtl VMtl1694
f 3/3/3 2/2/2 1/1/1
f 4/4/4 1/1/1 2/2/2
f 7/7/7 6/6/6 5/5/5
f 8/8/8 5/5/5 6/6/6
f 11/11/11 10/10/10 9/9/9
f 12/12/12 9/9/9 10/10/10
f 15/15/15 14/14/14 13/13/13
f 16/16/16 13/13/13 14/14/14
f 19/19/19 18/18/18 17/17/17
f 20/20/20 17/17/17 18/18/18
f 23/23/23 22/22/22 21/21/21
f 24/24/24 21/21/21 22/22/22
g VMtl1695
v -24.97797 -10.85122 -3.937134
v -24.97498 -10.85122 3.30481
v -24.97595 -10.85122 8.071838
v -29.80298 -10.85122 3.306824
v -24.97498 -10.85122 3.30481
v -29.80597 -10.85122 -3.935181
v -24.97797 -10.85122 -3.937134
v 3.958038 -10.85222 -7.581177
v -24.98499 -10.85122 -7.558167
v 7.590027 -10.85222 8.089844
v -24.97595 -10.85122 8.071838
v 3.951019 -10.85222 -11.18915
v 20.83603 -10.85222 -11.20917
v 7.593018 -10.85222 15.33185
v 20.83902 -10.85222 -3.978149
v 47.38702 -10.85222 15.28687
v 47.36804 -10.85222 -4.00116
vn 0 0.5773503 0
vn 0 0.5773503 0
vn 0 0.5773503 0
vn 0 -0.5773503 0
vn 0 -0.5773503 0
vn 0 -0.5773503 0
vn 0 -0.5773503 0
vn 0 -0.5773503 0
vn 0 -0.5773503 0
vn 0 -0.5773503 0
vn 0 -0.5773503 0
vn 0 -0.5773503 0
vn 0 -0.5773503 0
vn 0 -0.5773503 0
vn 0 -0.5773503 0
vn 0 -0.5773503 0
vn 0 -0.5773503 0
vt 0 0
vt 0 0
vt 0 0
vt 0 0
vt 0 0
vt 0 0
vt 0 0
vt 0 0
vt 0 0
vt 0 0
vt 0 0
vt 0 0
vt 0 0
vt 0 0
vt 0 0
vt 0 0
vt 0 0
usemtl VMtl1695
f 27/27/27 26/26/26 25/25/25
f 30/30/30 29/29/29 28/28/28
f 29/29/29 30/30/30 31/31/31
f 31/31/31 33/33/33 32/32/32
f 32/32/32 34/34/34 31/31/31
f 31/31/31 34/34/34 35/35/35
f 36/36/36 34/34/34 32/32/32
f 34/34/34 36/36/36 37/37/37
f 38/38/38 34/34/34 37/37/37
f 39/39/39 38/38/38 37/37/37
f 39/39/39 40/40/40 38/38/38
f 40/40/40 39/39/39 41/41/41
g VMtl1696
v -29.80597 10.85178 -3.935181
v -24.97797 10.85178 -3.937134
v 20.83902 10.85178 -3.978149
v 47.36804 10.85178 -4.00116
v 47.38702 10.85178 15.28687
v 7.594025 10.85178 15.33185
v 7.590027 10.85178 8.089844
v -24.97595 10.85178 8.071838
v -24.97498 10.85178 3.30481
v -29.80298 10.85178 3.306824
v -29.80597 10.85178 -3.935181
v -24.98499 10.85178 -7.558167
v 3.958038 10.85178 -7.581177
v -24.97797 10.85178 -3.937134
v 20.83902 10.85178 -3.978149
v 20.83603 10.85178 -11.20917
v 3.951019 10.85178 -11.18915
v 7.593018 -10.85222 15.33185
v 7.590027 10.85178 8.089844
v 7.594025 10.85178 15.33185
v 7.590027 -10.85222 8.089844
v 47.36804 -10.85222 -4.00116
v 47.38702 10.85178 15.28687
v 47.36804 10.85178 -4.00116
v 47.38702 -10.85222 15.28687
v 3.958038 -10.85222 -7.581177
v 3.951019 10.85178 -11.18915
v 3.958038 10.85178 -7.581177
v 3.951019 -10.85222 -11.18915
v -24.97797 -10.85122 -3.937134
v -24.98499 10.85178 -7.558167
v -24.97797 10.85178 -3.937134
v -24.98499 -10.85122 -7.558167
v -29.80597 -10.85122 -3.935181
v -24.97797 10.85178 -3.937134
v -29.80597 10.85178 -3.935181
v -24.97797 -10.85122 -3.937134
v -29.80298 -10.85122 3.306824
v -29.80597 10.85178 -3.935181
v -29.80298 10.85178 3.306824
v -29.80597 -10.85122 -3.935181
v -24.97498 -10.85122 3.30481
v -29.80298 10.85178 3.306824
v -24.97498 10.85178 3.30481
v -29.80298 -10.85122 3.306824
v -24.97595 -10.85122 8.071838
v -24.97498 10.85178 3.30481
v -24.97595 10.85178 8.071838
v -24.97498 -10.85122 3.30481
vn 0 -0.5773503 0
vn 0 -0.5773503 0
vn 0 -0.5773503 0
vn 0 0.5773503 0
vn 0 0.5773503 0
vn 0 0.5773503 0
vn 0 0.5773503 0
vn 0 0.5773503 0
vn 0 0.5773503 0
vn 0 0.5773503 0
vn 0 0.5773503 0
vn 0 0.5773503 0
vn 0 0.5773503 0
vn 0 0.5773503 0
vn 0 0.5773503 0
vn 0 0.5773503 0
vn 0 0.5773503 0
vn -0.5773503 0 0
vn -0.5773503 0 0
vn -0.5773503 0 0
vn -0.5773503 0 0
vn 0.5773503 0 0
vn 0.5773503 0 0
vn 0.5773503 0 0
vn 0.5773503 0 0
vn -0.5773491 0 0.001154698
vn -0.5773491 0 0.001154698
vn -0.5773491 0 0.001154698
vn -0.5773491 0 0.001154698
vn -0.5773491 0 0.001154698
vn -0.5773491 0 0.001154698
vn -0.5773491 0 0.001154698
vn -0.5773491 0 0.001154698
vn 0 0 -0.5773503
vn 0 0 -0.5773503
vn 0 0 -0.5773503
vn 0 0 -0.5773503
vn -0.5773503 0 0
vn -0.5773503 0 0
vn -0.5773503 0 0
vn -0.5773503 0 0
vn 0 0 0.5773503
vn 0 0 0.5773503
vn 0 0 0.5773503
vn 0 0 0.5773503
vn -0.5773503 0 0
vn -0.5773503 0 0
vn -0.5773503 0 0
vn -0.5773503 0 0
vt 0.5 -3.647
vt 0.5 -2.9805
vt 0.5 3.3528
vt 0.5 7.0193
vt 3.1665 7.0193
vt 3.1665 1.5193
vt 2.1665 1.5193
vt 2.1594 -2.9805
vt 1.5 -2.9805
vt 1.5 -3.647
vt 0.5 -3.647
vt 0 -2.9805
vt 0 1.0193
vt 0.5 -2.9805
vt 0.5 3.3528
vt -0.5 3.3528
vt -0.5 1.0193
vt 5.6665 0.2224
vt 6.6665 0.5557
vt 6.6665 0.2224
vt 5.6665 0.5557
vt -1 -0.8887
vt 0 0
vt 0 -0.8887
vt -1 0
vt 5.6665 1.2776
vt 6.6665 1.4443
vt 6.6665 1.2776
vt 5.6665 1.4443
vt 5.6665 1.1111
vt 6.6665 1.2776
vt 6.6665 1.1111
vt 5.6665 1.2776
vt 5.6665 1.1111
vt 6.6665 1.1111
vt 6.6665 1.1111
vt 5.6665 1.1111
vt 5.6665 0.7778
vt 6.6665 1.1111
vt 6.6665 0.7778
vt 5.6665 1.1111
vt -1 -0.2222
vt 0 0.0002
vt 0 -0.2222
vt -1 0.0002
vt 5.6665 0.5581
vt 6.6665 0.7778
vt 6.6665 0.5581
vt 5.6665 0.7778
usemtl VMtl1696
f 44/44/44 43/43/43 42/42/42
f 47/47/47 46/46/46 45/45/45
f 48/48/48 47/47/47 45/45/45
f 49/49/49 48/48/48 45/45/45
f 50/50/50 49/49/49 45/45/45
f 51/51/51 50/50/50 45/45/45
f 45/45/45 52/52/52 51/51/51
f 55/55/55 54/54/54 53/53/53
f 55/55/55 56/56/56 54/54/54
f 54/54/54 56/56/56 57/57/57
f 54/54/54 57/57/57 58/58/58
f 61/61/61 60/60/60 59/59/59
f 62/62/62 59/59/59 60/60/60
f 65/65/65 64/64/64 63/63/63
f 66/66/66 63/63/63 64/64/64
f 69/69/69 68/68/68 67/67/67
f 70/70/70 67/67/67 68/68/68
f 73/73/73 72/72/72 71/71/71
f 74/74/74 71/71/71 72/72/72
f 77/77/77 76/76/76 75/75/75
f 78/78/78 75/75/75 76/76/76
f 81/81/81 80/80/80 79/79/79
f 82/82/82 79/79/79 80/80/80
f 85/85/85 84/84/84 83/83/83
f 86/86/86 83/83/83 84/84/84
f 89/89/89 88/88/88 87/87/87
f 90/90/90 87/87/87 88/88/88
