# Blender v3.2.1 OBJ File: ''
# www.blender.org
mtllib 궁리실험관.mtl
o 큐브.003_큐브.005
v -15.000000 0.000000 10.000000
v -15.000000 20.000000 10.000000
v -15.000000 0.000000 -10.000000
v -15.000000 20.000000 -10.000000
v 15.000000 0.000000 10.000000
v 15.000000 20.000000 10.000000
v 15.000000 0.000000 -10.000000
v 15.000000 20.000000 -10.000000
v 8.126162 20.000000 -10.000000
v 8.125998 0.000000 -10.000000
v -15.000000 20.000000 -15.937775
v -15.000000 0.000000 -15.937775
v 8.125998 0.000000 -15.937775
v 8.126162 20.000000 -15.937775
vt 0.375000 0.000000
vt 0.625000 0.000000
vt 0.625000 0.250000
vt 0.375000 0.250000
vt 0.317717 0.500000
vt 0.125000 0.500000
vt 0.125000 0.500000
vt 0.317717 0.500000
vt 0.375000 0.500000
vt 0.625000 0.500000
vt 0.625000 0.750000
vt 0.375000 0.750000
vt 0.625000 1.000000
vt 0.375000 1.000000
vt 0.125000 0.750000
vt 0.682282 0.500000
vt 0.875000 0.500000
vt 0.875000 0.750000
vt 0.375000 0.250000
vt 0.625000 0.250000
vt 0.625000 0.442718
vt 0.375000 0.442717
vt 0.375000 0.442717
vt 0.625000 0.442718
vt 0.682282 0.500000
vt 0.875000 0.500000
vn -1.0000 0.0000 0.0000
vn 0.0000 -1.0000 0.0000
vn 1.0000 0.0000 0.0000
vn 0.0000 0.0000 1.0000
vn 0.0000 1.0000 0.0000
vn 0.0000 0.0000 -1.0000
usemtl None
s off
f 1/1/1 2/2/1 4/3/1 3/4/1
f 10/5/2 3/6/2 12/7/2 13/8/2
f 7/9/3 8/10/3 6/11/3 5/12/3
f 5/12/4 6/11/4 2/13/4 1/14/4
f 3/6/2 10/5/2 7/9/2 5/12/2 1/15/2
f 8/10/5 9/16/5 4/17/5 2/18/5 6/11/5
f 12/19/6 11/20/6 14/21/6 13/22/6
f 10/23/6 9/24/6 8/10/6 7/9/6
f 3/4/1 4/3/1 11/20/1 12/19/1
f 9/24/3 10/23/3 13/22/3 14/21/3
f 4/17/5 9/16/5 14/25/5 11/26/5
o 큐브.004_큐브.006
v -21.731853 0.000000 5.757425
v -21.731853 26.000000 5.757425
v -21.731853 0.000000 -0.242575
v -21.731853 26.000000 -0.242575
v -1.731853 0.000000 5.757425
v -1.731853 26.000000 5.757425
v -1.731853 0.000000 -0.242575
v -1.731853 26.000000 -0.242575
vt 0.375000 0.000000
vt 0.625000 0.000000
vt 0.625000 0.250000
vt 0.375000 0.250000
vt 0.625000 0.500000
vt 0.375000 0.500000
vt 0.625000 0.750000
vt 0.375000 0.750000
vt 0.625000 1.000000
vt 0.375000 1.000000
vt 0.125000 0.500000
vt 0.125000 0.750000
vt 0.875000 0.500000
vt 0.875000 0.750000
vn -1.0000 0.0000 0.0000
vn 0.0000 0.0000 -1.0000
vn 1.0000 0.0000 0.0000
vn 0.0000 0.0000 1.0000
vn 0.0000 -1.0000 0.0000
vn 0.0000 1.0000 0.0000
usemtl None
s off
f 15/27/7 16/28/7 18/29/7 17/30/7
f 17/30/8 18/29/8 22/31/8 21/32/8
f 21/32/9 22/31/9 20/33/9 19/34/9
f 19/34/10 20/33/10 16/35/10 15/36/10
f 17/37/11 21/32/11 19/34/11 15/38/11
f 22/31/12 18/39/12 16/40/12 20/33/12
o 큐브.005_큐브.007
v 6.735603 0.000000 26.590889
v 6.735603 16.000000 26.590889
v 6.735603 0.000000 8.590889
v 6.735603 16.000000 8.590889
v 12.735603 0.000000 26.590889
v 12.735603 16.000000 26.590889
v 12.735603 0.000000 8.590889
v 12.735603 16.000000 8.590889
v 12.735603 16.000000 24.474092
v 12.735603 0.000000 24.474098
v 15.007418 16.000000 24.474092
v 15.007418 16.000000 26.590889
v 15.007418 0.000000 26.590889
v 15.007418 0.000000 24.474098
v 12.735603 16.000000 36.036835
v 12.735603 0.000000 36.036835
v 15.007418 16.000000 36.036835
v 15.007418 0.000000 36.036835
v 15.007418 16.000000 33.978451
v 15.007418 0.000000 33.994164
v 16.448662 16.000000 36.036835
v 16.448662 0.000000 36.036835
v 16.448662 16.000000 33.978451
v 16.448662 0.000000 33.994164
vt 0.375000 0.000000
vt 0.625000 0.000000
vt 0.625000 0.250000
vt 0.375000 0.250000
vt 0.625000 0.500000
vt 0.375000 0.500000
vt 0.625000 0.720600
vt 0.375000 0.720600
vt 0.375000 0.750000
vt 0.625000 0.750000
vt 0.625000 1.000000
vt 0.375000 1.000000
vt 0.125000 0.500000
vt 0.125000 0.750000
vt 0.875000 0.500000
vt 0.875000 0.750000
vt 0.375000 0.750000
vt 0.625000 0.750000
vt 0.375000 0.720600
vt 0.625000 0.720600
vt 0.625000 0.750000
vt 0.375000 0.750000
vt 0.375000 0.750000
vt 0.625000 0.750000
vt 0.625000 0.750000
vt 0.375000 0.750000
vt 0.375000 0.750000
vt 0.625000 0.750000
vt 0.625000 0.750000
vt 0.375000 0.750000
vn -1.0000 0.0000 0.0000
vn 0.0000 0.0000 -1.0000
vn 1.0000 0.0000 0.0000
vn 0.0000 0.0000 1.0000
vn 0.0000 -1.0000 0.0000
vn 0.0000 1.0000 0.0000
vn 0.0000 -0.0010 -1.0000
usemtl None
s off
f 23/41/13 24/42/13 26/43/13 25/44/13
f 25/44/14 26/43/14 30/45/14 29/46/14
f 29/46/15 30/45/15 31/47/15 32/48/15
f 27/49/16 28/50/16 24/51/16 23/52/16
f 25/53/17 29/46/17 32/48/17 27/49/17 23/54/17
f 30/45/18 26/55/18 24/56/18 28/50/18 31/47/18
f 28/50/13 27/49/13 38/57/13 37/58/13
f 36/59/15 33/60/15 34/61/15 35/62/15
f 32/48/14 31/47/14 33/60/14 36/59/14
f 31/47/18 28/50/18 34/61/18 33/60/18
f 27/49/17 32/48/17 36/59/17 35/62/17
f 37/58/16 38/57/16 40/63/16 39/64/16
f 34/61/18 28/50/18 37/58/18 39/64/18 41/65/18
f 35/62/15 34/61/15 41/65/15 42/66/15
f 27/49/17 35/62/17 42/66/17 40/63/17 38/57/17
f 46/67/15 45/68/15 43/69/15 44/70/15
f 41/65/18 39/64/18 43/69/18 45/68/18
f 40/63/17 42/66/17 46/67/17 44/70/17
f 39/64/16 40/63/16 44/70/16 43/69/16
f 42/66/19 41/65/19 45/68/19 46/67/19
