# Blender v3.2.1 OBJ File: ''
# www.blender.org
mtllib 여울관.mtl
o 여울관_큐브.002
v -8.000000 0.000000 20.000000
v -8.000000 40.000000 20.000000
v -8.000000 0.000000 -20.000000
v -8.000000 40.000000 -20.000000
v 8.000000 0.000000 20.000000
v 8.000000 40.000000 20.000000
v 8.630440 0.611397 -47.403759
v 8.000000 40.000000 -46.091347
v -8.000000 40.000000 -20.000000
v -8.000000 0.000000 -20.000000
v 8.000000 0.000000 -46.091347
v 8.000000 40.000000 -46.091347
v -57.537411 39.865112 -48.429279
v -57.460888 -0.000004 -48.413578
v 7.208239 0.000000 -83.999008
v 7.208239 40.000000 -83.999008
v -58.480064 39.863869 -50.143753
v -58.403542 -0.001244 -50.128052
v -41.208481 -0.001242 -115.198502
v -41.208481 39.998756 -115.198502
v -99.949898 39.863373 -3.135297
v -99.873375 -0.001743 -3.119595
v -113.798111 10.572366 -24.652695
v -113.798111 50.572365 -24.652695
vt 0.375000 0.000000
vt 0.625000 0.000000
vt 0.625000 0.250000
vt 0.375000 0.250000
vt 0.625000 0.500000
vt 0.375000 0.500000
vt 0.375000 0.500000
vt 0.625000 0.500000
vt 0.625000 0.750000
vt 0.375000 0.750000
vt 0.125000 0.500000
vt 0.125000 0.750000
vt 0.375000 0.250000
vt 0.625000 0.250000
vt 0.625000 0.250000
vt 0.375000 0.250000
vt 0.125000 0.500000
vt 0.875000 0.500000
vt 0.875000 0.500000
vt 0.625000 0.250000
vt 0.375000 0.250000
vt 0.375000 0.500000
vt 0.625000 0.500000
vt 0.125000 0.500000
vt 0.625000 0.500000
vt 0.375000 0.500000
vt 0.375000 0.500000
vt 0.625000 0.500000
vt 0.125000 0.500000
vt 0.125000 0.500000
vt 0.625000 0.250000
vt 0.375000 0.250000
vt 0.625000 1.000000
vt 0.375000 1.000000
vt 0.875000 0.750000
vt 0.875000 0.500000
vt 0.875000 0.500000
vt 0.875000 0.500000
vn -1.0000 0.0000 0.0000
vn -0.9014 0.0000 -0.4330
vn 1.0000 0.0079 0.0048
vn 0.0140 -0.9999 -0.0056
vn -0.4979 -0.0003 0.8672
vn 0.8283 0.2362 0.5080
vn 0.0000 0.0000 1.0000
vn -0.8763 -0.0015 0.4818
vn 0.9998 0.0000 -0.0209
vn 0.0000 -1.0000 0.0000
vn -0.7802 0.0000 -0.6255
vn 0.5417 0.0000 -0.8406
vn -0.2418 -0.9620 -0.1266
vn 0.7499 0.0017 0.6615
vn 0.0000 1.0000 0.0000
vn -0.0020 1.0000 -0.0005
vn -0.0012 1.0000 0.0017
vn -0.8405 -0.0007 0.5419
vn 0.2459 0.9605 0.1300
usemtl 매테리얼.017
s off
f 1/1/1 2/2/1 4/3/1 3/4/1
f 8/5/2 7/6/2 11/7/2 12/8/2
f 7/6/3 8/5/3 6/9/3 5/10/3
f 3/11/4 7/6/4 5/10/4 1/12/4
f 10/13/5 9/14/5 13/15/5 14/16/5
f 7/6/6 3/11/6 10/17/6 11/7/6
f 4/18/7 8/5/7 12/8/7 9/19/7
f 3/4/7 4/3/7 9/14/7 10/13/7
f 14/16/8 13/15/8 17/20/8 18/21/8
f 12/8/9 11/7/9 15/22/9 16/23/9
f 11/7/10 10/17/10 14/24/10 15/22/10
f 20/25/11 19/26/11 23/27/11 24/28/11
f 16/23/12 15/22/12 19/26/12 20/25/12
f 15/22/10 14/24/10 18/29/10 19/26/10
f 19/26/13 18/29/13 22/30/13 23/27/13
f 18/21/14 17/20/14 21/31/14 22/32/14
usemtl 매테리얼.018
f 5/10/7 6/9/7 2/33/7 1/34/7
f 8/5/15 4/18/15 2/35/15 6/9/15
f 9/19/16 12/8/16 16/23/16 13/36/16
f 13/36/17 16/23/17 20/25/17 17/37/17
f 22/32/18 21/31/18 24/28/18 23/27/18
f 17/37/19 20/25/19 24/28/19 21/38/19
