# Blender v3.2.1 OBJ File: ''
# www.blender.org
mtllib 의과학대학원.mtl
o 실린더.001
v -12.717804 0.000000 16.014385
v -12.717804 40.000000 16.014385
v -10.766901 0.000000 16.110458
v -10.766901 40.000000 16.110458
v -8.890969 0.000000 16.394987
v -8.890969 40.000000 16.394987
v -7.162102 0.000000 16.857037
v -7.162102 40.000000 16.857037
v -5.646736 0.000000 17.478851
v -5.646736 40.000000 17.478851
v -4.403108 0.000000 18.236534
v -4.403108 40.000000 18.236534
v -3.479009 0.000000 19.100967
v -3.479009 40.000000 19.100967
v -2.909951 0.000000 20.038933
v -2.909951 40.000000 20.038933
v -2.717804 0.000000 21.014385
v -2.717804 40.000000 21.014385
v -2.909951 0.000000 21.989838
v -2.909951 40.000000 21.989838
v -3.479009 0.000000 22.927803
v -3.479009 40.000000 22.927803
v -4.403108 0.000000 23.792236
v -4.403108 40.000000 23.792236
v -5.646736 0.000000 24.549919
v -5.646736 40.000000 24.549919
v -7.162102 0.000000 25.171734
v -7.162102 40.000000 25.171734
v -8.890969 0.000000 25.633783
v -8.890969 40.000000 25.633783
v -10.766901 0.000000 25.918312
v -10.766901 40.000000 25.918312
v -12.717805 0.000000 26.014385
v -12.717805 40.000000 26.014385
v -14.668707 0.000000 25.918312
v -14.668707 40.000000 25.918312
v -16.544638 0.000000 25.633783
v -16.544638 40.000000 25.633783
v -18.273506 0.000000 25.171734
v -18.273506 40.000000 25.171734
v -19.788872 0.000000 24.549919
v -19.788872 40.000000 24.549919
v -21.032497 0.000000 23.792236
v -21.032497 40.000000 23.792236
v -21.956600 0.000000 22.927803
v -21.956600 40.000000 22.927803
v -22.525658 0.000000 21.989838
v -22.525658 40.000000 21.989838
v -22.717804 0.000000 21.014385
v -22.717804 40.000000 21.014385
v -22.525658 0.000000 20.038933
v -22.525658 40.000000 20.038933
v -21.956598 0.000000 19.100967
v -21.956598 40.000000 19.100967
v -21.032501 0.000000 18.236534
v -21.032501 40.000000 18.236534
v -19.788872 0.000000 17.478851
v -19.788872 40.000000 17.478851
v -18.273506 0.000000 16.857037
v -18.273506 40.000000 16.857037
v -16.544638 0.000000 16.394987
v -16.544638 40.000000 16.394987
v -14.668706 0.000000 16.110458
v -14.668706 40.000000 16.110458
vt 1.000000 0.500000
vt 1.000000 1.000000
vt 0.968750 1.000000
vt 0.968750 0.500000
vt 0.937500 1.000000
vt 0.937500 0.500000
vt 0.906250 1.000000
vt 0.906250 0.500000
vt 0.875000 1.000000
vt 0.875000 0.500000
vt 0.843750 1.000000
vt 0.843750 0.500000
vt 0.812500 1.000000
vt 0.812500 0.500000
vt 0.781250 1.000000
vt 0.781250 0.500000
vt 0.750000 1.000000
vt 0.750000 0.500000
vt 0.718750 1.000000
vt 0.718750 0.500000
vt 0.687500 1.000000
vt 0.687500 0.500000
vt 0.656250 1.000000
vt 0.656250 0.500000
vt 0.625000 1.000000
vt 0.625000 0.500000
vt 0.593750 1.000000
vt 0.593750 0.500000
vt 0.562500 1.000000
vt 0.562500 0.500000
vt 0.531250 1.000000
vt 0.531250 0.500000
vt 0.500000 1.000000
vt 0.500000 0.500000
vt 0.468750 1.000000
vt 0.468750 0.500000
vt 0.437500 1.000000
vt 0.437500 0.500000
vt 0.406250 1.000000
vt 0.406250 0.500000
vt 0.375000 1.000000
vt 0.375000 0.500000
vt 0.343750 1.000000
vt 0.343750 0.500000
vt 0.312500 1.000000
vt 0.312500 0.500000
vt 0.281250 1.000000
vt 0.281250 0.500000
vt 0.250000 1.000000
vt 0.250000 0.500000
vt 0.218750 1.000000
vt 0.218750 0.500000
vt 0.187500 1.000000
vt 0.187500 0.500000
vt 0.156250 1.000000
vt 0.156250 0.500000
vt 0.125000 1.000000
vt 0.125000 0.500000
vt 0.093750 1.000000
vt 0.093750 0.500000
vt 0.062500 1.000000
vt 0.062500 0.500000
vt 0.031250 1.000000
vt 0.031250 0.500000
vt 0.000000 1.000000
vt 0.000000 0.500000
vt 0.750000 0.490000
vt 0.796822 0.485388
vt 0.841844 0.471731
vt 0.883337 0.449553
vt 0.919706 0.419706
vt 0.949553 0.383337
vt 0.971731 0.341844
vt 0.985388 0.296822
vt 0.990000 0.250000
vt 0.985388 0.203178
vt 0.971731 0.158156
vt 0.949553 0.116663
vt 0.919706 0.080294
vt 0.883337 0.050447
vt 0.841844 0.028269
vt 0.796822 0.014612
vt 0.750000 0.010000
vt 0.703178 0.014612
vt 0.658156 0.028269
vt 0.616663 0.050447
vt 0.580294 0.080294
vt 0.550447 0.116663
vt 0.528269 0.158156
vt 0.514612 0.203178
vt 0.510000 0.250000
vt 0.514612 0.296822
vt 0.528269 0.341844
vt 0.550447 0.383337
vt 0.580294 0.419706
vt 0.616663 0.449553
vt 0.658156 0.471731
vt 0.703178 0.485388
vt 0.296822 0.485388
vt 0.250000 0.490000
vt 0.203178 0.485388
vt 0.158156 0.471731
vt 0.116663 0.449553
vt 0.080294 0.419706
vt 0.050447 0.383337
vt 0.028269 0.341844
vt 0.014612 0.296822
vt 0.010000 0.250000
vt 0.014612 0.203178
vt 0.028269 0.158156
vt 0.050447 0.116663
vt 0.080294 0.080294
vt 0.116663 0.050447
vt 0.158156 0.028269
vt 0.203178 0.014612
vt 0.250000 0.010000
vt 0.296822 0.014612
vt 0.341844 0.028269
vt 0.383337 0.050447
vt 0.419706 0.080294
vt 0.449553 0.116663
vt 0.471731 0.158156
vt 0.485388 0.203178
vt 0.490000 0.250000
vt 0.485388 0.296822
vt 0.471731 0.341844
vt 0.449553 0.383337
vt 0.419706 0.419706
vt 0.383337 0.449553
vt 0.341844 0.471731
vn 0.0492 0.0000 -0.9988
vn 0.1500 0.0000 -0.9887
vn 0.2582 0.0000 -0.9661
vn 0.3796 0.0000 -0.9251
vn 0.5203 0.0000 -0.8540
vn 0.6831 0.0000 -0.7303
vn 0.8550 0.0000 -0.5187
vn 0.9811 0.0000 -0.1933
vn 0.9811 0.0000 0.1933
vn 0.8550 0.0000 0.5187
vn 0.6831 0.0000 0.7303
vn 0.5203 0.0000 0.8540
vn 0.3796 0.0000 0.9251
vn 0.2582 0.0000 0.9661
vn 0.1500 0.0000 0.9887
vn 0.0492 0.0000 0.9988
vn -0.0492 0.0000 0.9988
vn -0.1500 0.0000 0.9887
vn -0.2582 0.0000 0.9661
vn -0.3796 0.0000 0.9251
vn -0.5203 0.0000 0.8540
vn -0.6831 0.0000 0.7303
vn -0.8550 0.0000 0.5187
vn -0.9811 0.0000 0.1933
vn -0.9811 0.0000 -0.1933
vn -0.8550 0.0000 -0.5187
vn -0.6831 0.0000 -0.7303
vn -0.5203 0.0000 -0.8540
vn -0.3796 0.0000 -0.9251
vn -0.2582 0.0000 -0.9661
vn -0.1500 0.0000 -0.9887
vn -0.0492 0.0000 -0.9988
vn 0.0000 -1.0000 0.0000
vn 0.0000 1.0000 0.0000
usemtl 매테리얼.019
s off
f 1/1/1 2/2/1 4/3/1 3/4/1
f 3/4/2 4/3/2 6/5/2 5/6/2
f 5/6/3 6/5/3 8/7/3 7/8/3
f 7/8/4 8/7/4 10/9/4 9/10/4
f 9/10/5 10/9/5 12/11/5 11/12/5
f 11/12/6 12/11/6 14/13/6 13/14/6
f 13/14/7 14/13/7 16/15/7 15/16/7
f 15/16/8 16/15/8 18/17/8 17/18/8
f 17/18/9 18/17/9 20/19/9 19/20/9
f 19/20/10 20/19/10 22/21/10 21/22/10
f 21/22/11 22/21/11 24/23/11 23/24/11
f 23/24/12 24/23/12 26/25/12 25/26/12
f 25/26/13 26/25/13 28/27/13 27/28/13
f 27/28/14 28/27/14 30/29/14 29/30/14
f 29/30/15 30/29/15 32/31/15 31/32/15
f 31/32/16 32/31/16 34/33/16 33/34/16
f 33/34/17 34/33/17 36/35/17 35/36/17
f 35/36/18 36/35/18 38/37/18 37/38/18
f 37/38/19 38/37/19 40/39/19 39/40/19
f 39/40/20 40/39/20 42/41/20 41/42/20
f 41/42/21 42/41/21 44/43/21 43/44/21
f 43/44/22 44/43/22 46/45/22 45/46/22
f 45/46/23 46/45/23 48/47/23 47/48/23
f 47/48/24 48/47/24 50/49/24 49/50/24
f 49/50/25 50/49/25 52/51/25 51/52/25
f 51/52/26 52/51/26 54/53/26 53/54/26
f 53/54/27 54/53/27 56/55/27 55/56/27
f 55/56/28 56/55/28 58/57/28 57/58/28
f 57/58/29 58/57/29 60/59/29 59/60/29
f 59/60/30 60/59/30 62/61/30 61/62/30
f 61/62/31 62/61/31 64/63/31 63/64/31
f 63/64/32 64/63/32 2/65/32 1/66/32
f 1/67/33 3/68/33 5/69/33 7/70/33 9/71/33 11/72/33 13/73/33 15/74/33 17/75/33 19/76/33 21/77/33 23/78/33 25/79/33 27/80/33 29/81/33 31/82/33 33/83/33 35/84/33 37/85/33 39/86/33 41/87/33 43/88/33 45/89/33 47/90/33 49/91/33 51/92/33 53/93/33 55/94/33 57/95/33 59/96/33 61/97/33 63/98/33
usemtl 매테리얼.020
f 4/99/34 2/100/34 64/101/34 62/102/34 60/103/34 58/104/34 56/105/34 54/106/34 52/107/34 50/108/34 48/109/34 46/110/34 44/111/34 42/112/34 40/113/34 38/114/34 36/115/34 34/116/34 32/117/34 30/118/34 28/119/34 26/120/34 24/121/34 22/122/34 20/123/34 18/124/34 16/125/34 14/126/34 12/127/34 10/128/34 8/129/34 6/130/34
o 큐브.001_큐브.003
v -15.000000 0.000000 10.000000
v -10.562386 40.000000 7.041590
v -15.000000 0.000000 -10.000000
v -10.562386 40.000000 -7.041590
v 15.000000 0.000000 10.000000
v 10.562386 40.000000 7.041590
v 15.000000 0.000000 -10.000000
v 10.562386 40.000000 -7.041590
v -15.000000 40.000000 10.000000
v -15.000000 40.000000 -10.000000
v 15.000000 40.000000 -10.000000
v 15.000000 40.000000 10.000000
v -10.562386 43.226799 7.041590
v -10.562386 43.226799 -7.041590
v 10.562386 43.226799 -7.041590
v 10.562386 43.226799 7.041590
v -18.352049 43.226799 5.648800
v -18.352049 43.226799 -5.648800
v -1.405650 43.226799 -5.648800
v -1.405650 43.226799 5.648800
v -10.562386 43.226799 7.041590
v -10.562386 43.226799 -7.041590
v 10.562386 43.226799 -7.041590
v 10.562386 43.226799 7.041590
v -18.352049 48.629131 5.648800
v -18.352049 48.629131 -5.648800
v -1.405650 48.629131 -5.648800
v -1.405650 48.629131 5.648800
vt 0.375000 0.000000
vt 0.625000 0.000000
vt 0.625000 0.250000
vt 0.375000 0.250000
vt 0.625000 0.500000
vt 0.375000 0.500000
vt 0.625000 0.750000
vt 0.375000 0.750000
vt 0.625000 1.000000
vt 0.375000 1.000000
vt 0.125000 0.500000
vt 0.125000 0.750000
vt 0.838020 0.713020
vt 0.661980 0.713020
vt 0.661980 0.713020
vt 0.838020 0.713020
vt 0.838020 0.536980
vt 0.875000 0.500000
vt 0.875000 0.750000
vt 0.661980 0.536980
vt 0.661980 0.536980
vt 0.661980 0.536980
vt 0.661980 0.713020
vt 0.838020 0.536980
vt 0.820610 0.695610
vt 0.679390 0.695610
vt 0.679390 0.695610
vt 0.820610 0.695610
vt 0.838020 0.713020
vt 0.838020 0.536980
vt 0.820610 0.554390
vt 0.679390 0.554390
vt 0.679390 0.554390
vt 0.820610 0.554390
vn -1.0000 0.0000 0.0000
vn 0.0000 0.0000 -1.0000
vn 1.0000 0.0000 0.0000
vn 0.0000 0.0000 1.0000
vn 0.0000 -1.0000 0.0000
vn 0.0000 1.0000 0.0000
usemtl None
s off
f 65/131/35 73/132/35 74/133/35 67/134/35
f 67/134/36 74/133/36 75/135/36 71/136/36
f 71/136/37 75/135/37 76/137/37 69/138/37
f 69/138/38 76/137/38 73/139/38 65/140/38
f 67/141/39 71/136/39 69/138/39 65/142/39
f 66/143/38 70/144/38 80/145/38 77/146/38
f 66/143/40 68/147/40 74/148/40 73/149/40
f 68/147/40 72/150/40 75/135/40 74/148/40
f 72/150/40 70/144/40 76/137/40 75/135/40
f 70/144/40 66/143/40 73/149/40 76/137/40
f 80/145/38 79/151/38 87/152/38 88/153/38
f 72/150/36 68/147/36 78/154/36 79/151/36
f 70/144/37 72/150/37 79/151/37 80/145/37
f 68/147/35 66/143/35 77/146/35 78/154/35
f 81/155/38 84/156/38 92/157/38 89/158/38
f 78/154/38 77/146/38 85/159/38 86/160/38
f 77/146/38 80/145/38 88/153/38 85/159/38
f 79/151/38 78/154/38 86/160/38 87/152/38
f 81/155/39 82/161/39 86/160/39 85/159/39
f 82/161/40 83/162/40 87/152/40 86/160/40
f 83/162/40 84/156/40 88/153/40 87/152/40
f 84/156/40 81/155/40 85/159/40 88/153/40
f 91/163/40 90/164/40 89/158/40 92/157/40
f 83/162/36 82/161/36 90/164/36 91/163/36
f 84/156/37 83/162/37 91/163/37 92/157/37
f 82/161/35 81/155/35 89/158/35 90/164/35
o 큐브.002_큐브.004
v -9.034252 29.578800 45.713921
v -9.034252 39.578800 45.713921
v -9.034252 29.578800 5.713921
v -9.034252 39.578800 5.713921
v -5.034253 29.578800 45.713921
v -5.034253 39.578800 45.713921
v -5.034253 29.578800 5.713921
v -5.034253 39.578800 5.713921
vt 0.375000 0.000000
vt 0.625000 0.000000
vt 0.625000 0.250000
vt 0.375000 0.250000
vt 0.625000 0.500000
vt 0.375000 0.500000
vt 0.625000 0.750000
vt 0.375000 0.750000
vt 0.625000 1.000000
vt 0.375000 1.000000
vt 0.125000 0.500000
vt 0.125000 0.750000
vt 0.875000 0.500000
vt 0.875000 0.750000
vn -1.0000 0.0000 0.0000
vn 0.0000 0.0000 -1.0000
vn 1.0000 0.0000 0.0000
vn 0.0000 0.0000 1.0000
vn 0.0000 -1.0000 0.0000
vn 0.0000 1.0000 0.0000
usemtl None
s off
f 93/165/41 94/166/41 96/167/41 95/168/41
f 95/168/42 96/167/42 100/169/42 99/170/42
f 99/170/43 100/169/43 98/171/43 97/172/43
f 97/172/44 98/171/44 94/173/44 93/174/44
f 95/175/45 99/170/45 97/172/45 93/176/45
f 100/169/46 96/177/46 94/178/46 98/171/46
