# Blender v3.2.1 OBJ File: ''
# www.blender.org
mtllib 중앙창고.mtl
o 중앙창고_큐브.008
v -2.935067 1.237316 -0.416640
v -2.935067 1.731334 -0.416640
v -2.935067 1.237316 -0.910658
v -2.935067 1.731334 -0.910658
v 3.491841 0.600938 0.259355
v 4.782972 0.724741 0.259427
v 4.771172 0.583032 -0.625543
v 3.514800 0.724741 -0.551192
v 4.664933 1.903601 -1.151847
v 4.664933 0.103601 -1.151847
v 4.664933 0.103601 0.848153
v 4.664933 1.903601 0.848153
v 5.605437 0.724741 -0.551192
v 5.582478 0.600938 -0.551264
v 5.582478 0.600938 0.259355
v 5.605437 0.724741 0.259427
v 4.770754 0.583032 0.082235
v 5.064933 0.003601 0.118306
v 4.771172 0.583032 -0.399207
v 5.065425 0.003601 -0.442172
v -3.664181 0.832180 -0.551192
v -3.687140 0.708377 -0.551264
v -3.687140 0.708377 0.259355
v -3.664181 0.832180 0.259427
v -2.983946 0.540021 0.118884
v -2.952659 -0.024186 0.118306
v -2.983946 0.540021 -0.440196
v -2.952659 -0.024186 -0.439507
v 5.033647 0.567808 0.118884
v 5.064933 0.003601 0.118306
v 5.033647 0.567808 -0.440196
v 5.064933 0.003601 -0.439507
v -2.983946 0.540021 -0.160656
v -2.952659 -0.024186 -0.160600
v 4.770963 0.583032 -0.158486
v 5.065179 0.003601 -0.161933
v 5.033647 0.567808 -0.160656
v 5.064933 0.003601 -0.160600
v -2.535067 0.103601 -1.151847
v -2.535067 0.103601 0.848153
v -2.535067 1.903601 0.848153
v -2.935067 2.003601 -1.151847
v -2.935067 0.003601 -1.151847
v -2.935067 0.003601 0.848153
v -2.935067 2.003601 0.848153
v -2.935067 2.003601 -1.151847
v -2.535067 0.903601 -1.151847
v 0.664933 0.103601 -1.151847
v 1.464933 1.903601 -1.151847
v 4.664933 1.103601 -1.151847
v 1.464933 1.103601 -1.151847
v -2.535067 1.903601 -1.151847
v -2.535067 1.103601 -1.151847
v 0.664933 1.903601 -1.151847
v 0.664933 1.103601 -1.151847
v 3.464933 1.903601 -1.151847
v 3.464933 0.103601 -1.151847
v 3.464933 1.103601 -1.151847
v -1.335067 0.103601 -1.151847
v -0.935067 2.003601 -1.151847
v -1.335067 0.903601 -1.151847
v -1.335067 1.903601 -1.151847
v -1.335067 1.103601 -1.151847
v -2.935067 1.003601 -1.151847
v -2.935067 0.003601 -1.151847
v -0.935067 0.003601 -1.151847
v 3.064933 2.003601 -1.151847
v 5.064933 2.003601 -1.151847
v 5.064933 1.003601 -1.151847
v 5.064933 0.003601 -1.151847
v 3.064933 0.003601 -1.151847
v 1.064933 0.003601 -1.151847
v -0.935067 1.003601 -1.151847
v 1.064933 1.003601 -1.151847
v 1.064933 2.003601 -1.151847
v -2.935067 2.003601 -1.151847
v -2.935067 1.003601 -1.151847
v -0.935067 2.003601 -1.151847
v 1.064933 2.003601 -1.151847
v -0.935067 1.003601 -1.151847
v 1.064933 1.003601 -1.151847
v 2.664933 1.103601 -1.151847
v 4.664933 0.903601 -1.151847
v 2.664933 1.903601 -1.151847
v -0.535067 0.903601 -1.151847
v -0.535067 0.103601 -1.151847
v -2.935067 1.003601 -1.151847
v -2.935067 0.003601 -1.151847
v 5.064933 2.003601 -1.151847
v 5.064933 1.003601 -1.151847
v 2.664933 0.903601 -1.151847
v 3.464933 0.903601 -1.151847
v 1.464933 0.103601 -1.151847
v 1.464933 0.903601 -1.151847
v 0.664933 0.903601 -1.151847
v 2.664933 0.103601 -1.151847
v 3.064933 2.003601 -1.151847
v -0.535067 1.903601 -1.151847
v -0.535067 1.103601 -1.151847
v -0.935067 1.003601 -1.151847
v -0.935067 0.003601 -1.151847
v 5.064933 0.003601 -1.151847
v 1.064933 2.003601 -1.151847
v -2.935067 2.003601 -1.151847
v -2.935067 1.003601 -1.151847
v 1.064933 1.003601 -1.151847
v 1.064933 0.003601 -1.151847
v 3.064933 1.003601 -1.151847
v 3.064933 0.003601 -1.151847
v -0.935067 2.003601 -1.151847
v -0.935067 1.003601 -1.151847
v 1.064933 2.003601 -1.151847
v 1.064933 1.003601 -1.151847
v 3.464933 1.103601 -0.963277
v 4.664933 1.103601 -0.963277
v 3.464933 1.903601 -0.963277
v -1.335067 0.903601 -0.963277
v -1.335067 0.103601 -0.963277
v -2.535067 0.903601 -0.963277
v -2.535067 0.103601 -0.963277
v 4.664933 1.903601 -0.963277
v 3.464933 0.903601 -0.963277
v 4.664933 0.903601 -0.963277
v 0.664933 0.903601 -0.963277
v 0.664933 0.103601 -0.963277
v 1.464933 1.103601 -0.963277
v 2.664933 1.103601 -0.963277
v 3.464933 0.103601 -0.963277
v 2.664933 1.903601 -0.963277
v -1.335067 1.903601 -0.963277
v -1.335067 1.103601 -0.963277
v -0.535067 0.903601 -0.963277
v -0.535067 0.103601 -0.963277
v 4.664933 0.103601 -0.963277
v 1.464933 1.903601 -0.963277
v -2.535067 1.903601 -0.963277
v -2.535067 1.103601 -0.963277
v 1.464933 0.903601 -0.963277
v 1.464933 0.103601 -0.963277
v 2.664933 0.903601 -0.963277
v 2.664933 0.103601 -0.963277
v -0.535067 1.903601 -0.963277
v -0.535067 1.103601 -0.963277
v 0.664933 1.903601 -0.963277
v 0.664933 1.103601 -0.963277
v -2.535067 1.103601 0.848153
v 4.664933 0.903601 0.848153
v 0.664933 0.103601 0.848153
v 1.464933 1.903601 0.848153
v 0.664933 0.903601 0.848153
v 3.464933 0.103601 0.848153
v -1.335067 1.903601 0.848153
v -0.535067 0.103601 0.848153
v 2.664933 1.903601 0.848153
v -0.535067 0.903601 0.848153
v 3.464933 0.903601 0.848153
v -2.535067 0.903601 0.848153
v -2.935067 2.003601 0.848153
v 4.664933 1.103601 0.848153
v 5.064933 0.003601 0.848153
v 2.664933 0.103601 0.848153
v -0.535067 1.903601 0.848153
v -1.335067 0.103601 0.848153
v 1.464933 0.103601 0.848153
v 3.464933 1.903601 0.848153
v 0.664933 1.903601 0.848153
v -0.535067 1.103601 0.848153
v -1.335067 1.103601 0.848153
v 3.464933 1.103601 0.848153
v 2.664933 1.103601 0.848153
v 0.664933 1.103601 0.848153
v 1.464933 1.103601 0.848153
v -2.935067 0.003601 0.848153
v -2.935067 1.003601 0.848153
v 5.064933 2.003601 0.848153
v 5.064933 1.003601 0.848153
v 1.064933 0.003601 0.848153
v -0.935067 1.003601 0.848153
v -1.335067 0.903601 0.848153
v 3.064933 1.003601 0.848153
v 2.664933 0.903601 0.848153
v 1.064933 1.003601 0.848153
v 1.464933 0.903601 0.848153
v 1.064933 2.003601 0.848153
v 3.064933 0.003601 0.848153
v -0.935067 2.003601 0.848153
v -0.935067 0.003601 0.848153
v 3.064933 2.003601 0.848153
v -2.535067 1.103601 0.733067
v -2.535067 1.903601 0.733067
v 4.664933 0.903601 0.733067
v 4.664933 0.103601 0.733067
v 3.464933 0.103601 0.733067
v -1.335067 1.903601 0.733067
v -0.535067 0.103601 0.733067
v 0.664933 0.103601 0.733067
v 2.664933 1.903601 0.733067
v 1.464933 1.903601 0.733067
v -1.335067 1.103601 0.733067
v 2.664933 1.103601 0.733067
v 1.464933 1.103601 0.733067
v 0.664933 0.903601 0.733067
v -0.535067 0.903601 0.733067
v 3.464933 0.903601 0.733067
v -2.535067 0.103601 0.733067
v -2.535067 0.903601 0.733067
v 4.664933 1.903601 0.733067
v 4.664933 1.103601 0.733067
v -1.335067 0.903601 0.733067
v 2.664933 0.903601 0.733067
v 1.464933 0.903601 0.733067
v 1.464933 0.103601 0.733067
v 0.664933 1.903601 0.733067
v 0.664933 1.103601 0.733067
v 2.664933 0.103601 0.733067
v -0.535067 1.903601 0.733067
v -1.335067 0.103601 0.733067
v 3.464933 1.903601 0.733067
v -0.535067 1.103601 0.733067
v 3.464933 1.103601 0.733067
v 5.064051 0.590509 0.118884
v 5.095337 0.026303 0.118306
v 5.064051 0.590509 -0.160656
v 5.064051 0.590509 -0.440196
v 5.095337 0.026303 -0.160600
v 5.095337 0.026303 -0.439507
v 5.100478 0.592529 0.118884
v 5.131763 0.028323 0.118306
v 5.100478 0.592529 -0.160656
v 5.100478 0.592529 -0.440196
v 5.131763 0.028323 -0.160600
v 5.131763 0.028323 -0.439507
v 5.100478 0.592529 0.118884
v 5.131763 0.028323 0.118306
v 5.100478 0.592529 -0.160656
v 5.100478 0.592529 -0.440196
v 5.131763 0.028323 -0.160600
v 5.131763 0.028323 -0.439507
vt 0.461218 0.086218
vt 0.538782 0.086218
vt 0.538782 0.163782
vt 0.461218 0.163782
vt 0.487500 0.425000
vt 0.387500 0.425000
vt 0.387500 0.425000
vt 0.487500 0.425000
vt 0.569041 0.555959
vt 0.569041 0.694041
vt 0.569041 0.694041
vt 0.569041 0.555959
vt 0.612500 0.762500
vt 0.612500 0.800000
vt 0.612500 0.800000
vt 0.612500 0.762500
vt 0.125000 0.500000
vt 0.187500 0.500000
vt 0.250000 0.500000
vt 0.312500 0.500000
vt 0.375000 0.500000
vt 0.375000 0.589042
vt 0.375000 0.623906
vt 0.375000 0.658769
vt 0.375000 0.750000
vt 0.312500 0.750000
vt 0.250000 0.750000
vt 0.187500 0.750000
vt 0.125000 0.750000
vt 0.625000 0.500000
vt 0.687500 0.500000
vt 0.750000 0.500000
vt 0.812500 0.500000
vt 0.875000 0.500000
vt 0.875000 0.750000
vt 0.812500 0.750000
vt 0.750000 0.750000
vt 0.687500 0.750000
vt 0.625000 0.750000
vt 0.430959 0.555959
vt 0.500000 0.500000
vt 0.430959 0.588969
vt 0.430959 0.694041
vt 0.500000 0.750000
vt 0.569041 0.694041
vt 0.569041 0.555959
vt 0.430959 0.555959
vt 0.430959 0.694041
vt 0.430959 0.658854
vt 0.430959 0.623911
vt 0.430959 0.588969
vt 0.375000 0.589042
vt 0.430959 0.555959
vt 0.430959 0.694041
vt 0.430959 0.658854
vt 0.430959 0.623911
vt 0.375000 0.623906
vt 0.375000 0.658769
vt 0.375000 0.589042
vt 0.430959 0.588969
vt 0.375000 0.623906
vt 0.375000 0.623906
vt 0.375000 0.589042
vt 0.430959 0.623911
vt 0.375000 0.658769
vt 0.430959 0.658854
vt 0.430959 0.623911
vt 0.430959 0.658854
vt 0.000000 0.000000
vt 0.000000 0.000000
vt 0.000000 0.000000
vt 0.000000 0.000000
vt 0.000000 0.000000
vt 0.625000 0.250000
vt 0.625000 0.000000
vt 0.625000 0.000000
vt 0.625000 0.250000
vt 0.000000 0.000000
vt 0.000000 0.000000
vt 0.000000 0.000000
vt 0.000000 0.000000
vt 0.000000 0.000000
vt 0.375000 0.250000
vt 0.375000 0.000000
vt 0.487500 0.487500
vt 0.387500 0.487500
vt 0.387500 0.487500
vt 0.487500 0.487500
vt 0.487500 0.387500
vt 0.487500 0.387500
vt 0.750000 0.500000
vt 0.812500 0.500000
vt 0.387500 0.325000
vt 0.487500 0.325000
vt 0.487500 0.325000
vt 0.387500 0.325000
vt 0.000000 0.000000
vt 0.000000 0.000000
vt 0.000000 0.000000
vt 0.000000 0.000000
vt 0.000000 0.000000
vt 0.000000 0.000000
vt 0.500000 0.312500
vt 0.500000 0.250000
vt 0.500000 0.250000
vt 0.500000 0.312500
vt 0.387500 0.387500
vt 0.387500 0.387500
vt 0.612500 0.300000
vt 0.512500 0.300000
vt 0.512500 0.300000
vt 0.612500 0.300000
vt 0.500000 0.375000
vt 0.500000 0.375000
vt 0.487500 0.262500
vt 0.487500 0.300000
vt 0.487500 0.300000
vt 0.487500 0.262500
vt 0.875000 0.500000
vt 0.612500 0.425000
vt 0.512500 0.425000
vt 0.512500 0.425000
vt 0.612500 0.425000
vt 0.000000 0.000000
vt 0.000000 0.000000
vt 0.375000 0.250000
vt 0.375000 0.312500
vt 0.375000 0.312500
vt 0.375000 0.250000
vt 0.625000 0.500000
vt 0.625000 0.437500
vt 0.625000 0.437500
vt 0.000000 0.000000
vt 0.000000 0.000000
vt 0.000000 0.000000
vt 0.000000 0.000000
vt 0.375000 0.375000
vt 0.375000 0.437500
vt 0.375000 0.437500
vt 0.375000 0.375000
vt 0.000000 0.000000
vt 0.000000 0.000000
vt 0.500000 0.375000
vt 0.500000 0.312500
vt 0.000000 0.000000
vt 0.000000 0.000000
vt 0.000000 0.000000
vt 0.000000 0.000000
vt 0.625000 0.375000
vt 0.625000 0.312500
vt 0.625000 0.312500
vt 0.625000 0.375000
vt 0.500000 0.312500
vt 0.500000 0.375000
vt 0.000000 0.000000
vt 0.000000 0.000000
vt 0.625000 0.375000
vt 0.625000 0.375000
vt 0.375000 0.500000
vt 0.500000 0.250000
vt 0.625000 0.250000
vt 0.625000 0.250000
vt 0.500000 0.250000
vt 0.512500 0.450000
vt 0.512500 0.487500
vt 0.500000 0.500000
vt 0.500000 0.437500
vt 0.612500 0.450000
vt 0.387500 0.300000
vt 0.387500 0.262500
vt 0.612500 0.487500
vt 0.487500 0.450000
vt 0.387500 0.362500
vt 0.487500 0.362500
vt 0.512500 0.387500
vt 0.387500 0.450000
vt 0.612500 0.387500
vt 0.612500 0.262500
vt 0.512500 0.262500
vt 0.612500 0.325000
vt 0.512500 0.325000
vt 0.612500 0.362500
vt 0.512500 0.362500
vt 0.487500 0.362500
vt 0.612500 0.325000
vt 0.512500 0.325000
vt 0.612500 0.387500
vt 0.512500 0.387500
vt 0.612500 0.262500
vt 0.512500 0.262500
vt 0.612500 0.362500
vt 0.512500 0.450000
vt 0.512500 0.487500
vt 0.512500 0.362500
vt 0.612500 0.450000
vt 0.387500 0.450000
vt 0.387500 0.300000
vt 0.387500 0.362500
vt 0.487500 0.450000
vt 0.387500 0.262500
vt 0.612500 0.487500
vt 0.487500 0.925000
vt 0.387500 0.925000
vt 0.387500 0.925000
vt 0.487500 0.925000
vt 0.612500 0.987500
vt 0.512500 0.987500
vt 0.512500 0.987500
vt 0.612500 0.987500
vt 0.387500 0.987500
vt 0.387500 0.950000
vt 0.387500 0.950000
vt 0.387500 0.987500
vt 0.487500 0.800000
vt 0.387500 0.800000
vt 0.387500 0.800000
vt 0.487500 0.800000
vt 0.612500 0.887500
vt 0.612500 0.925000
vt 0.612500 0.925000
vt 0.612500 0.887500
vt 0.512500 0.825000
vt 0.612500 0.825000
vt 0.612500 0.825000
vt 0.512500 0.825000
vt 0.387500 0.862500
vt 0.387500 0.825000
vt 0.387500 0.825000
vt 0.387500 0.862500
vt 0.625000 1.000000
vt 0.500000 1.000000
vt 0.487500 0.762500
vt 0.387500 0.762500
vt 0.375000 0.812500
vt 0.612500 0.950000
vt 0.625000 0.937500
vt 0.387500 0.887500
vt 0.375000 0.937500
vt 0.375000 0.875000
vt 0.612500 0.862500
vt 0.625000 0.812500
vt 0.625000 0.875000
vt 0.512500 0.950000
vt 0.500000 0.937500
vt 0.512500 0.862500
vt 0.500000 0.875000
vt 0.500000 0.812500
vt 0.487500 0.887500
vt 0.487500 0.987500
vt 0.375000 1.000000
vt 0.512500 0.762500
vt 0.487500 0.950000
vt 0.487500 0.862500
vt 0.487500 0.825000
vt 0.512500 0.887500
vt 0.512500 0.925000
vt 0.512500 0.800000
vt 0.487500 0.762500
vt 0.387500 0.762500
vt 0.612500 0.950000
vt 0.512500 0.950000
vt 0.512500 0.887500
vt 0.512500 0.925000
vt 0.512500 0.762500
vt 0.512500 0.800000
vt 0.387500 0.887500
vt 0.487500 0.825000
vt 0.612500 0.862500
vt 0.487500 0.987500
vt 0.487500 0.950000
vt 0.512500 0.862500
vt 0.487500 0.887500
vt 0.487500 0.862500
vt 0.430959 0.588969
vt 0.375000 0.589042
vt 0.430959 0.588969
vt 0.375000 0.658769
vt 0.375000 0.658769
vt 0.375000 0.623906
vt 0.375000 0.623906
vt 0.375000 0.589042
vt 0.430959 0.658854
vt 0.430959 0.623911
vt 0.430959 0.623911
vt 0.430959 0.658854
vt 0.375000 0.658769
vt 0.430959 0.588969
vt 0.375000 0.000000
vt 0.000000 0.000000
vt 0.000000 0.000000
vt 0.000000 0.000000
vt 0.000000 0.000000
vt 0.000000 0.000000
vt 0.000000 0.000000
vn -1.0000 0.0000 0.0000
vn 0.0000 1.0000 -0.0000
vn 0.0000 -1.0000 0.0000
vn 0.4427 0.2296 0.8668
vn 0.8917 0.4527 -0.0005
vn 0.7626 -0.5478 -0.3441
vn 0.5906 -0.3590 -0.7227
vn -0.0116 -0.9999 0.0000
vn 0.0216 0.3617 -0.9320
vn 0.0000 -0.0006 1.0000
vn 0.0170 -0.9996 0.0234
vn 0.3491 0.8070 0.4764
vn -0.0023 -0.0376 0.9993
vn 0.9832 -0.1823 0.0000
vn 0.0000 0.0006 -1.0000
vn 0.0116 0.9999 0.0000
vn 0.0055 -1.0000 0.0000
vn -0.0035 1.0000 -0.0000
vn -0.0022 -0.0316 -0.9995
vn 0.1450 0.0047 0.9894
vn -0.5983 0.8013 0.0000
vn -0.0579 -0.9983 -0.0000
vn 0.1386 0.0087 -0.9903
vn -0.0578 -0.9983 -0.0000
vn 0.5983 -0.8013 0.0000
vn 0.0000 0.0000 1.0000
vn 1.0000 0.0000 0.0000
vn 0.0000 0.0000 -1.0000
vn -0.0001 0.0012 1.0000
vn -0.0554 0.9985 0.0000
vn -0.0007 0.0010 -1.0000
vn -0.0009 0.0012 1.0000
vn 1.0000 0.0001 0.0000
vn 0.0554 -0.9985 0.0000
vn -0.0001 0.0010 -1.0000
vn 0.9985 0.0554 0.0000
vn -0.9985 -0.0554 0.0000
usemtl 매테리얼.021
s off
f 1/1/1 2/2/1 4/3/1 3/4/1
f 91/5/1 96/6/1 141/7/1 140/8/1
f 8/9/2 6/10/2 16/11/2 13/12/2
f 12/13/3 165/14/3 218/15/3 207/16/3
f 65/17/3 66/18/3 72/19/3 71/20/3 70/21/3 20/22/3 36/23/3 18/24/3 160/25/3 185/26/3 177/27/3 187/28/3 173/29/3
f 68/30/2 67/31/2 75/32/2 60/33/2 42/34/2 158/35/2 186/36/2 184/37/2 188/38/2 175/39/2
f 8/9/4 7/40/4 70/21/4 69/41/4 68/30/4
f 7/40/5 19/42/5 20/22/5 70/21/5
f 6/10/6 8/9/6 68/30/6 175/39/6
f 5/43/7 6/10/7 175/39/7 176/44/7 160/25/7
f 13/12/8 16/11/8 24/45/8 21/46/8
f 7/40/9 8/9/9 13/12/9 14/47/9
f 6/10/10 5/43/10 15/48/10 16/11/10
f 5/43/11 17/49/11 35/50/11 19/42/11 7/40/11 14/47/11 15/48/11
f 18/24/12 17/49/12 5/43/12 160/25/12
f 20/22/13 19/42/13 27/51/13 28/52/13
f 22/53/14 21/46/14 24/45/14 23/54/14
f 14/47/10 13/12/10 21/46/10 22/53/10
f 16/11/15 15/48/15 23/54/15 24/45/15
f 15/48/16 14/47/16 22/53/16 23/54/16
f 19/42/17 35/50/17 17/49/17 25/55/17 33/56/17 27/51/17
f 18/24/18 36/23/18 20/22/18 28/52/18 34/57/18 26/58/18
f 17/49/19 18/24/19 26/58/19 25/55/19
f 19/42/20 20/22/20 32/59/20 31/60/20
f 32/59/21 38/61/21 225/62/21 226/63/21
f 35/50/22 19/42/22 31/60/22 37/64/22
f 36/23/3 18/24/3 30/65/3 38/61/3
f 18/24/23 17/49/23 29/66/23 30/65/23
f 20/22/3 36/23/3 38/61/3 32/59/3
f 17/49/24 35/50/24 37/64/24 29/66/24
f 29/66/25 37/64/25 223/67/25 221/68/25
f 45/69/26 44/70/26 173/71/26 174/72/26 158/73/26
f 46/74/26 45/75/26 158/76/26 42/77/26
f 43/78/26 46/79/26 42/80/26 64/81/26 65/82/26
f 1/1/1 3/4/1 43/83/1 44/84/1
f 2/2/1 1/1/1 44/84/1 45/75/1
f 4/3/1 2/2/1 45/75/1 46/74/1
f 3/4/1 4/3/1 46/74/1 43/83/1
f 83/85/1 10/86/1 134/87/1 123/88/1
f 94/89/3 91/5/3 140/8/3 138/90/3
f 60/33/26 75/32/26 79/91/26 78/92/26
f 86/93/27 85/94/27 132/95/27 133/96/27
f 64/81/26 42/80/26 76/97/26 77/98/26
f 75/99/26 74/100/26 81/101/26 79/102/26
f 73/103/26 64/104/26 77/105/26 80/106/26
f 93/107/27 94/89/27 138/90/27 139/108/27
f 62/109/1 63/110/1 131/111/1 130/112/1
f 74/113/26 73/103/26 80/106/26 81/114/26
f 47/115/3 61/116/3 117/117/3 119/118/3
f 42/34/26 60/33/26 78/92/26 76/119/26
f 84/120/1 82/121/1 127/122/1 129/123/1
f 87/124/26 88/125/26 65/82/26 64/81/26
f 88/126/26 101/127/26 66/128/26 65/129/26
f 89/130/26 97/131/26 67/132/26 68/30/26
f 102/133/26 90/134/26 69/135/26 70/136/26
f 107/137/26 109/138/26 71/139/26 72/140/26
f 90/134/26 89/141/26 68/142/26 69/135/26
f 106/143/26 100/144/26 73/103/26 74/113/26
f 103/145/26 106/146/26 74/100/26 75/99/26
f 104/147/26 105/148/26 77/98/26 76/97/26
f 112/149/26 110/150/26 78/151/26 79/152/26
f 111/153/26 113/154/26 81/114/26 80/106/26
f 113/155/26 112/156/26 79/102/26 81/101/26
f 97/131/26 103/157/26 75/158/26 67/132/26
f 109/138/26 102/159/26 70/21/26 71/139/26
f 101/127/26 107/137/26 72/140/26 66/128/26
f 100/144/26 87/160/26 64/104/26 73/103/26
f 110/150/26 104/161/26 76/162/26 78/151/26
f 105/163/26 111/153/26 80/106/26 77/105/26
f 58/164/28 50/165/28 90/166/28 108/167/28
f 56/168/28 58/164/28 108/167/28 97/131/28
f 59/169/28 61/116/28 100/144/28 101/127/28
f 47/115/28 39/170/28 88/126/28 87/160/28
f 39/170/28 59/169/28 101/127/28 88/126/28
f 9/171/28 56/168/28 97/131/28 89/130/28
f 50/165/28 9/171/28 89/130/28 90/166/28
f 61/116/28 47/115/28 87/160/28 100/144/28
f 83/85/28 92/172/28 108/167/28 90/166/28
f 48/173/28 95/174/28 106/143/28 107/137/28
f 51/175/28 82/121/28 108/167/28 106/143/28
f 92/172/28 57/176/28 109/138/28 108/167/28
f 82/121/28 84/120/28 97/131/28 108/167/28
f 63/110/28 62/109/28 110/150/28 111/153/28
f 85/94/28 86/93/28 101/127/28 100/144/28
f 10/86/28 83/85/28 90/166/28 102/159/28
f 95/174/28 85/94/28 100/144/28 106/143/28
f 49/177/28 51/175/28 106/143/28 103/157/28
f 52/178/28 53/179/28 105/163/28 104/161/28
f 84/120/28 49/177/28 103/157/28 97/131/28
f 57/176/28 10/86/28 102/159/28 109/138/28
f 86/93/28 48/173/28 107/137/28 101/127/28
f 62/109/28 52/178/28 104/161/28 110/150/28
f 53/179/28 63/110/28 111/153/28 105/163/28
f 94/89/28 93/107/28 107/137/28 106/143/28
f 91/5/28 94/89/28 106/143/28 108/167/28
f 96/6/28 91/5/28 108/167/28 109/138/28
f 98/180/28 99/181/28 111/153/28 110/150/28
f 93/107/28 96/6/28 109/138/28 107/137/28
f 54/182/28 98/180/28 110/150/28 112/149/28
f 99/181/28 55/183/28 113/154/28 111/153/28
f 55/183/28 54/182/28 112/149/28 113/154/28
f 85/94/3 95/174/3 124/184/3 132/95/3
f 99/181/27 98/180/27 142/185/27 143/186/27
f 51/175/27 49/177/27 135/187/27 126/188/27
f 96/6/2 93/107/2 139/108/2 141/7/2
f 53/179/27 52/178/27 136/189/27 137/190/27
f 98/180/3 54/182/3 144/191/3 142/185/3
f 50/165/2 58/164/2 114/192/2 115/193/2
f 49/177/3 84/120/3 129/123/3 135/187/3
f 55/183/2 99/181/2 143/186/2 145/194/2
f 58/164/27 56/168/27 116/195/27 114/192/27
f 10/86/2 57/176/2 128/196/2 134/87/2
f 54/182/1 55/183/1 145/194/1 144/191/1
f 61/116/1 59/169/1 118/197/1 117/117/1
f 48/173/2 86/93/2 133/96/2 125/198/2
f 92/172/3 83/85/3 123/88/3 122/199/3
f 39/170/27 47/115/27 119/118/27 120/200/27
f 52/178/3 62/109/3 130/112/3 136/189/3
f 95/174/1 48/173/1 125/198/1 124/184/1
f 59/169/2 39/170/2 120/200/2 118/197/2
f 63/110/2 53/179/2 137/190/2 131/111/2
f 82/121/2 51/175/2 126/188/2 127/122/2
f 56/168/3 9/171/3 121/201/3 116/195/3
f 57/176/27 92/172/27 122/199/27 128/196/27
f 9/171/1 50/165/1 115/193/1 121/201/1
f 155/202/27 153/203/27 195/204/27 203/205/27
f 41/206/27 146/207/27 189/208/27 190/209/27
f 40/210/2 163/211/2 217/212/2 205/213/2
f 156/214/27 151/215/27 193/216/27 204/217/27
f 166/218/3 162/219/3 216/220/3 213/221/3
f 170/222/1 154/223/1 197/224/1 200/225/1
f 164/226/2 161/227/2 215/228/2 212/229/2
f 146/207/26 41/206/26 158/230/26 174/231/26
f 147/232/26 11/233/26 160/25/26 176/44/26
f 11/233/26 151/215/26 185/234/26 160/25/26
f 41/206/26 152/235/26 186/236/26 158/230/26
f 148/237/26 153/203/26 187/238/26 177/239/26
f 149/240/26 154/223/26 188/241/26 184/242/26
f 168/243/26 146/207/26 174/231/26 178/244/26
f 170/222/26 172/245/26 182/246/26 180/247/26
f 150/248/26 148/237/26 177/239/26 182/246/26
f 172/245/26 149/240/26 184/242/26 182/246/26
f 155/202/26 150/248/26 182/246/26 178/244/26
f 156/214/26 147/232/26 176/44/26 180/247/26
f 154/223/26 170/222/26 180/247/26 188/241/26
f 151/215/26 156/214/26 180/247/26 185/234/26
f 153/203/26 155/202/26 178/244/26 187/238/26
f 152/235/26 168/243/26 178/244/26 186/236/26
f 40/210/26 157/249/26 174/231/26 173/250/26
f 12/13/26 159/251/26 176/44/26 175/39/26
f 157/249/26 179/252/26 178/244/26 174/231/26
f 183/253/26 181/254/26 180/247/26 182/246/26
f 164/226/26 183/253/26 182/246/26 177/239/26
f 166/218/26 171/255/26 182/246/26 184/242/26
f 161/227/26 164/226/26 177/239/26 185/234/26
f 162/219/26 166/218/26 184/242/26 186/236/26
f 163/211/26 40/210/26 173/250/26 187/238/26
f 165/14/26 12/13/26 175/39/26 188/241/26
f 171/255/26 167/256/26 178/244/26 182/246/26
f 159/251/26 169/257/26 180/247/26 176/44/26
f 169/257/26 165/14/26 188/241/26 180/247/26
f 181/254/26 161/227/26 185/234/26 180/247/26
f 179/252/26 163/211/26 187/238/26 178/244/26
f 167/256/26 162/219/26 186/236/26 178/244/26
f 11/233/1 147/232/1 191/258/1 192/259/1
f 168/243/1 152/235/1 194/260/1 199/261/1
f 167/256/2 171/255/2 214/262/2 219/263/2
f 151/215/2 11/233/2 192/259/2 193/216/2
f 169/257/2 159/251/2 208/264/2 220/265/2
f 152/235/3 41/206/3 190/209/3 194/260/3
f 165/14/27 169/257/27 220/265/27 218/15/27
f 153/203/2 148/237/2 196/266/2 195/204/2
f 161/227/1 181/254/1 210/267/1 215/228/1
f 154/223/3 149/240/3 198/268/3 197/224/3
f 157/249/27 40/210/27 205/213/27 206/269/27
f 163/211/1 179/252/1 209/270/1 217/212/1
f 146/207/2 168/243/2 199/261/2 189/208/2
f 159/251/1 12/13/1 207/16/1 208/264/1
f 162/219/27 167/256/27 219/263/27 216/220/27
f 172/245/2 170/222/2 200/225/2 201/271/2
f 179/252/3 157/249/3 206/269/3 209/270/3
f 148/237/1 150/248/1 202/272/1 196/266/1
f 181/254/3 183/253/3 211/273/3 210/267/3
f 149/240/27 172/245/27 201/271/27 198/268/27
f 183/253/27 164/226/27 212/229/27 211/273/27
f 150/248/3 155/202/3 203/205/3 202/272/3
f 171/255/1 166/218/1 213/221/1 214/262/1
f 147/232/3 156/214/3 204/217/3 191/258/3
f 224/274/29 226/63/29 232/275/29 230/276/29
f 225/62/30 222/277/30 228/278/30 231/279/30
f 30/65/31 29/66/31 221/68/31 222/277/31
f 38/61/21 30/65/21 222/277/21 225/62/21
f 31/60/32 32/59/32 226/63/32 224/274/32
f 37/64/25 31/60/25 224/274/25 223/67/25
f 175/39/33 176/44/33 160/25/33 20/22/33 70/21/33 102/133/33 90/134/33 89/141/33 68/30/33
f 232/275/26 231/279/26 237/280/26 238/281/26
f 227/282/26 229/283/26 235/284/26 233/285/26
f 223/67/34 224/274/34 230/276/34 229/283/34
f 221/68/34 223/67/34 229/283/34 227/282/34
f 226/63/30 225/62/30 231/279/30 232/275/30
f 222/277/35 221/68/35 227/282/35 228/278/35
f 228/278/26 227/282/26 233/285/26 234/286/26
f 231/279/26 228/278/26 234/286/26 237/280/26
f 230/276/26 232/275/26 238/281/26 236/287/26
f 229/283/26 230/276/26 236/287/26 235/284/26
usemtl 매테리얼.022
f 34/57/36 33/56/36 25/55/36 26/58/36
f 28/52/36 27/51/36 33/56/36 34/57/36
f 44/84/26 43/83/26 65/129/26 173/288/26
f 235/289/37 236/290/37 238/291/37 237/292/37
f 233/293/37 235/289/37 237/292/37 234/294/37
usemtl 매테리얼.023
f 114/192/28 116/195/28 121/201/28 115/193/28
f 128/196/28 122/199/28 123/88/28 134/87/28
f 133/96/28 132/95/28 124/184/28 125/198/28
f 143/186/28 142/185/28 144/191/28 145/194/28
f 139/108/28 138/90/28 140/8/28 141/7/28
f 126/188/28 135/187/28 129/123/28 127/122/28
f 137/190/28 136/189/28 130/112/28 131/111/28
f 120/200/28 119/118/28 117/117/28 118/197/28
f 199/261/26 194/260/26 190/209/26 189/208/26
f 217/212/26 209/270/26 206/269/26 205/213/26
f 215/228/26 210/267/26 211/273/26 212/229/26
f 200/225/26 197/224/26 198/268/26 201/271/26
f 208/264/26 207/16/26 218/15/26 220/265/26
f 192/259/26 191/258/26 204/217/26 193/216/26
f 196/266/26 202/272/26 203/205/26 195/204/26
f 214/262/26 213/221/26 216/220/26 219/263/26
l 70 68
